<svg width="295" height="33" viewBox="0 0 295 33" fill="none" xmlns="http://www.w3.org/2000/svg">
<path d="M2.464 5.728L0.28 2.496H0.968L2.784 5.208H2.496L4.328 2.496H4.992L2.792 5.728H2.464ZM2.344 8V5.304H2.936V8H2.344ZM6.35794 8.08C5.99527 8.08 5.6646 7.992 5.36594 7.816C5.0726 7.64 4.83794 7.40267 4.66194 7.104C4.49127 6.80533 4.40594 6.472 4.40594 6.104C4.40594 5.74133 4.49127 5.41333 4.66194 5.12C4.83794 4.82667 5.0726 4.59467 5.36594 4.424C5.6646 4.248 5.99527 4.16 6.35794 4.16C6.72594 4.16 7.0566 4.24533 7.34994 4.416C7.64327 4.58667 7.87527 4.82133 8.04594 5.12C8.22194 5.41333 8.30994 5.74133 8.30994 6.104C8.30994 6.47733 8.22194 6.81333 8.04594 7.112C7.87527 7.40533 7.64327 7.64 7.34994 7.816C7.0566 7.992 6.72594 8.08 6.35794 8.08ZM6.35794 7.536C6.6246 7.536 6.85927 7.47467 7.06194 7.352C7.26994 7.22933 7.4326 7.05867 7.54994 6.84C7.6726 6.62133 7.73394 6.376 7.73394 6.104C7.73394 5.832 7.6726 5.592 7.54994 5.384C7.4326 5.17067 7.26994 5.00267 7.06194 4.88C6.85927 4.75733 6.6246 4.696 6.35794 4.696C6.0966 4.696 5.86194 4.75733 5.65394 4.88C5.44594 5.00267 5.28327 5.17067 5.16594 5.384C5.0486 5.592 4.98994 5.832 4.98994 6.104C4.98994 6.38133 5.0486 6.62933 5.16594 6.848C5.28327 7.06133 5.44594 7.22933 5.65394 7.352C5.86194 7.47467 6.0966 7.536 6.35794 7.536ZM10.6888 8.08C10.3848 8.08 10.1128 8.01067 9.87281 7.872C9.63281 7.728 9.44348 7.53333 9.30481 7.288C9.17148 7.04267 9.10481 6.75467 9.10481 6.424V4.24H9.67281V6.4C9.67281 6.62933 9.71281 6.82933 9.79281 7C9.87815 7.17067 9.99815 7.304 10.1528 7.4C10.3075 7.496 10.4861 7.544 10.6888 7.544C11.0035 7.544 11.2515 7.44 11.4328 7.232C11.6195 7.024 11.7128 6.74667 11.7128 6.4V4.24H12.2728V6.424C12.2728 6.74933 12.2061 7.03733 12.0728 7.288C11.9395 7.53867 11.7528 7.73333 11.5128 7.872C11.2728 8.01067 10.9981 8.08 10.6888 8.08ZM13.318 8V4.24H13.878V8H13.318ZM13.878 5.808L13.646 5.704C13.646 5.22933 13.7607 4.85333 13.99 4.576C14.2247 4.29867 14.5447 4.16 14.95 4.16C15.1367 4.16 15.3073 4.19467 15.462 4.264C15.6167 4.328 15.7607 4.432 15.894 4.576L15.526 4.968C15.4353 4.86667 15.334 4.79467 15.222 4.752C15.1153 4.70933 14.9927 4.688 14.854 4.688C14.566 4.688 14.3313 4.784 14.15 4.976C13.9687 5.16267 13.878 5.44 13.878 5.808ZM17.8507 8L20.1067 2.496H20.5467L22.7787 8H22.1467L20.2027 3.136H20.4347L18.4747 8H17.8507ZM18.8827 6.568V6.048H21.7627V6.568H18.8827ZM24.9883 8.08C24.6416 8.08 24.3296 7.99467 24.0523 7.824C23.775 7.65333 23.5536 7.42133 23.3883 7.128C23.2283 6.82933 23.1483 6.496 23.1483 6.128C23.1483 5.75467 23.2283 5.42133 23.3883 5.128C23.5536 4.82933 23.775 4.59467 24.0523 4.424C24.3296 4.248 24.6416 4.16 24.9883 4.16C25.271 4.16 25.527 4.216 25.7563 4.328C25.9856 4.44 26.175 4.6 26.3243 4.808C26.479 5.01067 26.5696 5.25067 26.5963 5.528V6.704C26.5643 6.976 26.4736 7.216 26.3243 7.424C26.1803 7.62667 25.9936 7.78667 25.7643 7.904C25.535 8.02133 25.2763 8.08 24.9883 8.08ZM25.0843 7.544C25.3456 7.544 25.575 7.48533 25.7723 7.368C25.9696 7.24533 26.1243 7.07733 26.2363 6.864C26.3483 6.64533 26.4043 6.39733 26.4043 6.12C26.4043 5.83733 26.3456 5.58933 26.2283 5.376C26.1163 5.16267 25.9616 4.99467 25.7643 4.872C25.567 4.74933 25.3376 4.688 25.0763 4.688C24.815 4.688 24.583 4.74933 24.3803 4.872C24.1776 4.99467 24.0176 5.16533 23.9003 5.384C23.7883 5.59733 23.7323 5.84267 23.7323 6.12C23.7323 6.39733 23.7883 6.64533 23.9003 6.864C24.0176 7.07733 24.1776 7.24533 24.3803 7.368C24.5883 7.48533 24.823 7.544 25.0843 7.544ZM26.9323 8H26.3723V6.992L26.4843 6.064L26.3723 5.16V2.336H26.9323V8ZM29.668 8.08C29.3213 8.08 29.0093 7.99467 28.732 7.824C28.4547 7.65333 28.2333 7.42133 28.068 7.128C27.908 6.82933 27.828 6.496 27.828 6.128C27.828 5.75467 27.908 5.42133 28.068 5.128C28.2333 4.82933 28.4547 4.59467 28.732 4.424C29.0093 4.248 29.3213 4.16 29.668 4.16C29.9507 4.16 30.2067 4.216 30.436 4.328C30.6653 4.44 30.8547 4.6 31.004 4.808C31.1587 5.01067 31.2493 5.25067 31.276 5.528V6.704C31.244 6.976 31.1533 7.216 31.004 7.424C30.86 7.62667 30.6733 7.78667 30.444 7.904C30.2147 8.02133 29.956 8.08 29.668 8.08ZM29.764 7.544C30.0253 7.544 30.2547 7.48533 30.452 7.368C30.6493 7.24533 30.804 7.07733 30.916 6.864C31.028 6.64533 31.084 6.39733 31.084 6.12C31.084 5.83733 31.0253 5.58933 30.908 5.376C30.796 5.16267 30.6413 4.99467 30.444 4.872C30.2467 4.74933 30.0173 4.688 29.756 4.688C29.4947 4.688 29.2627 4.74933 29.06 4.872C28.8573 4.99467 28.6973 5.16533 28.58 5.384C28.468 5.59733 28.412 5.84267 28.412 6.12C28.412 6.39733 28.468 6.64533 28.58 6.864C28.6973 7.07733 28.8573 7.24533 29.06 7.368C29.268 7.48533 29.5027 7.544 29.764 7.544ZM31.612 8H31.052V6.992L31.164 6.064L31.052 5.16V2.336H31.612V8ZM32.7477 8V4.24H33.3077V8H32.7477ZM33.3077 5.808L33.0757 5.704C33.0757 5.22933 33.1904 4.85333 33.4197 4.576C33.6544 4.29867 33.9744 4.16 34.3797 4.16C34.5664 4.16 34.737 4.19467 34.8917 4.264C35.0464 4.328 35.1904 4.432 35.3237 4.576L34.9557 4.968C34.865 4.86667 34.7637 4.79467 34.6517 4.752C34.545 4.70933 34.4224 4.688 34.2837 4.688C33.9957 4.688 33.761 4.784 33.5797 4.976C33.3984 5.16267 33.3077 5.44 33.3077 5.808ZM37.5228 8.08C37.1441 8.08 36.8054 7.99467 36.5068 7.824C36.2081 7.65333 35.9708 7.41867 35.7948 7.12C35.6241 6.82133 35.5388 6.48533 35.5388 6.112C35.5388 5.744 35.6241 5.41333 35.7948 5.12C35.9654 4.82133 36.1974 4.58667 36.4908 4.416C36.7841 4.24533 37.1121 4.16 37.4748 4.16C37.8161 4.16 38.1174 4.23733 38.3788 4.392C38.6454 4.54667 38.8534 4.76267 39.0028 5.04C39.1574 5.312 39.2348 5.62667 39.2348 5.984C39.2348 6.02667 39.2321 6.07733 39.2268 6.136C39.2214 6.18933 39.2108 6.25333 39.1948 6.328H35.9388V5.848H38.8908L38.6908 6.024C38.6961 5.74667 38.6481 5.50933 38.5468 5.312C38.4508 5.10933 38.3094 4.95467 38.1228 4.848C37.9414 4.736 37.7201 4.68 37.4588 4.68C37.1868 4.68 36.9494 4.73867 36.7468 4.856C36.5441 4.97333 36.3841 5.13867 36.2668 5.352C36.1548 5.56 36.0988 5.808 36.0988 6.096C36.0988 6.384 36.1574 6.63733 36.2747 6.856C36.3974 7.07467 36.5654 7.24533 36.7788 7.368C36.9974 7.49067 37.2481 7.552 37.5308 7.552C37.7601 7.552 37.9708 7.512 38.1628 7.432C38.3548 7.34667 38.5174 7.22133 38.6508 7.056L39.0108 7.424C38.8348 7.632 38.6161 7.79467 38.3548 7.912C38.0988 8.024 37.8214 8.08 37.5228 8.08ZM41.2434 8.08C41.0408 8.08 40.8461 8.05333 40.6594 8C40.4728 7.94133 40.3021 7.86133 40.1474 7.76C39.9981 7.65867 39.8674 7.53867 39.7554 7.4L40.1154 7.032C40.2648 7.21333 40.4328 7.34933 40.6194 7.44C40.8114 7.52533 41.0248 7.568 41.2594 7.568C41.5101 7.568 41.7048 7.52 41.8434 7.424C41.9874 7.328 42.0594 7.19467 42.0594 7.024C42.0594 6.864 42.0088 6.73867 41.9074 6.648C41.8061 6.55733 41.6754 6.48533 41.5154 6.432C41.3608 6.37867 41.1954 6.328 41.0194 6.28C40.8434 6.22667 40.6754 6.16267 40.5154 6.088C40.3554 6.008 40.2248 5.89867 40.1234 5.76C40.0274 5.62133 39.9794 5.44 39.9794 5.216C39.9794 5.00267 40.0301 4.81867 40.1314 4.664C40.2381 4.504 40.3874 4.38133 40.5794 4.296C40.7768 4.20533 41.0088 4.16 41.2754 4.16C41.5581 4.16 41.8141 4.21067 42.0434 4.312C42.2728 4.41333 42.4568 4.56267 42.5954 4.76L42.2354 5.12C42.1234 4.976 41.9821 4.86667 41.8114 4.792C41.6461 4.712 41.4594 4.672 41.2514 4.672C41.0114 4.672 40.8274 4.72 40.6994 4.816C40.5768 4.90667 40.5154 5.02667 40.5154 5.176C40.5154 5.32 40.5661 5.43467 40.6674 5.52C40.7688 5.6 40.8968 5.66667 41.0514 5.72C41.2114 5.768 41.3794 5.81867 41.5554 5.872C41.7314 5.92 41.8994 5.98667 42.0594 6.072C42.2194 6.152 42.3474 6.264 42.4434 6.408C42.5448 6.54667 42.5954 6.736 42.5954 6.976C42.5954 7.312 42.4728 7.58133 42.2274 7.784C41.9874 7.98133 41.6594 8.08 41.2434 8.08ZM44.6341 8.08C44.4314 8.08 44.2367 8.05333 44.0501 8C43.8634 7.94133 43.6927 7.86133 43.5381 7.76C43.3887 7.65867 43.2581 7.53867 43.1461 7.4L43.5061 7.032C43.6554 7.21333 43.8234 7.34933 44.0101 7.44C44.2021 7.52533 44.4154 7.568 44.6501 7.568C44.9007 7.568 45.0954 7.52 45.2341 7.424C45.3781 7.328 45.4501 7.19467 45.4501 7.024C45.4501 6.864 45.3994 6.73867 45.2981 6.648C45.1967 6.55733 45.0661 6.48533 44.9061 6.432C44.7514 6.37867 44.5861 6.328 44.4101 6.28C44.2341 6.22667 44.0661 6.16267 43.9061 6.088C43.7461 6.008 43.6154 5.89867 43.5141 5.76C43.4181 5.62133 43.3701 5.44 43.3701 5.216C43.3701 5.00267 43.4207 4.81867 43.5221 4.664C43.6287 4.504 43.7781 4.38133 43.9701 4.296C44.1674 4.20533 44.3994 4.16 44.6661 4.16C44.9487 4.16 45.2047 4.21067 45.4341 4.312C45.6634 4.41333 45.8474 4.56267 45.9861 4.76L45.6261 5.12C45.5141 4.976 45.3727 4.86667 45.2021 4.792C45.0367 4.712 44.8501 4.672 44.6421 4.672C44.4021 4.672 44.2181 4.72 44.0901 4.816C43.9674 4.90667 43.9061 5.02667 43.9061 5.176C43.9061 5.32 43.9567 5.43467 44.0581 5.52C44.1594 5.6 44.2874 5.66667 44.4421 5.72C44.6021 5.768 44.7701 5.81867 44.9461 5.872C45.1221 5.92 45.2901 5.98667 45.4501 6.072C45.6101 6.152 45.7381 6.264 45.8341 6.408C45.9354 6.54667 45.9861 6.736 45.9861 6.976C45.9861 7.312 45.8634 7.58133 45.6181 7.784C45.3781 7.98133 45.0501 8.08 44.6341 8.08Z" fill="#666666"/>
<path d="M1.056 30V21.744H1.932V30H1.056ZM6.468 30V21.744H7.344V30H6.468ZM1.632 26.136V25.332H6.708V26.136H1.632ZM11.8103 30.12C11.2663 30.12 10.7703 29.988 10.3223 29.724C9.88234 29.46 9.53034 29.104 9.26634 28.656C9.01034 28.208 8.88234 27.708 8.88234 27.156C8.88234 26.612 9.01034 26.12 9.26634 25.68C9.53034 25.24 9.88234 24.892 10.3223 24.636C10.7703 24.372 11.2663 24.24 11.8103 24.24C12.3623 24.24 12.8583 24.368 13.2983 24.624C13.7383 24.88 14.0863 25.232 14.3423 25.68C14.6063 26.12 14.7383 26.612 14.7383 27.156C14.7383 27.716 14.6063 28.22 14.3423 28.668C14.0863 29.108 13.7383 29.46 13.2983 29.724C12.8583 29.988 12.3623 30.12 11.8103 30.12ZM11.8103 29.304C12.2103 29.304 12.5623 29.212 12.8663 29.028C13.1783 28.844 13.4223 28.588 13.5983 28.26C13.7823 27.932 13.8743 27.564 13.8743 27.156C13.8743 26.748 13.7823 26.388 13.5983 26.076C13.4223 25.756 13.1783 25.504 12.8663 25.32C12.5623 25.136 12.2103 25.044 11.8103 25.044C11.4183 25.044 11.0663 25.136 10.7543 25.32C10.4423 25.504 10.1983 25.756 10.0223 26.076C9.84634 26.388 9.75834 26.748 9.75834 27.156C9.75834 27.572 9.84634 27.944 10.0223 28.272C10.1983 28.592 10.4423 28.844 10.7543 29.028C11.0663 29.212 11.4183 29.304 11.8103 29.304ZM18.3067 30.12C17.8507 30.12 17.4427 30.016 17.0827 29.808C16.7227 29.592 16.4387 29.3 16.2307 28.932C16.0307 28.564 15.9307 28.132 15.9307 27.636V24.36H16.7827V27.6C16.7827 27.944 16.8427 28.244 16.9627 28.5C17.0907 28.756 17.2707 28.956 17.5027 29.1C17.7347 29.244 18.0027 29.316 18.3067 29.316C18.7787 29.316 19.1507 29.16 19.4227 28.848C19.7027 28.536 19.8427 28.12 19.8427 27.6V24.36H20.6827V27.636C20.6827 28.124 20.5827 28.556 20.3827 28.932C20.1827 29.308 19.9027 29.6 19.5427 29.808C19.1827 30.016 18.7707 30.12 18.3067 30.12ZM23.9784 30.12C23.6744 30.12 23.3824 30.08 23.1024 30C22.8224 29.912 22.5664 29.792 22.3344 29.64C22.1104 29.488 21.9144 29.308 21.7464 29.1L22.2864 28.548C22.5104 28.82 22.7624 29.024 23.0424 29.16C23.3304 29.288 23.6504 29.352 24.0024 29.352C24.3784 29.352 24.6704 29.28 24.8784 29.136C25.0944 28.992 25.2024 28.792 25.2024 28.536C25.2024 28.296 25.1264 28.108 24.9744 27.972C24.8224 27.836 24.6264 27.728 24.3864 27.648C24.1544 27.568 23.9064 27.492 23.6424 27.42C23.3784 27.34 23.1264 27.244 22.8864 27.132C22.6464 27.012 22.4504 26.848 22.2984 26.64C22.1544 26.432 22.0824 26.16 22.0824 25.824C22.0824 25.504 22.1584 25.228 22.3104 24.996C22.4704 24.756 22.6944 24.572 22.9824 24.444C23.2784 24.308 23.6264 24.24 24.0264 24.24C24.4504 24.24 24.8344 24.316 25.1784 24.468C25.5224 24.62 25.7984 24.844 26.0064 25.14L25.4664 25.68C25.2984 25.464 25.0864 25.3 24.8304 25.188C24.5824 25.068 24.3024 25.008 23.9904 25.008C23.6304 25.008 23.3544 25.08 23.1624 25.224C22.9784 25.36 22.8864 25.54 22.8864 25.764C22.8864 25.98 22.9624 26.152 23.1144 26.28C23.2664 26.4 23.4584 26.5 23.6904 26.58C23.9304 26.652 24.1824 26.728 24.4464 26.808C24.7104 26.88 24.9624 26.98 25.2024 27.108C25.4424 27.228 25.6344 27.396 25.7784 27.612C25.9304 27.82 26.0064 28.104 26.0064 28.464C26.0064 28.968 25.8224 29.372 25.4544 29.676C25.0944 29.972 24.6024 30.12 23.9784 30.12ZM29.9404 30.12C29.3724 30.12 28.8644 29.992 28.4164 29.736C27.9684 29.48 27.6124 29.128 27.3484 28.68C27.0924 28.232 26.9644 27.728 26.9644 27.168C26.9644 26.616 27.0924 26.12 27.3484 25.68C27.6044 25.232 27.9524 24.88 28.3924 24.624C28.8324 24.368 29.3244 24.24 29.8684 24.24C30.3804 24.24 30.8324 24.356 31.2244 24.588C31.6244 24.82 31.9364 25.144 32.1604 25.56C32.3924 25.968 32.5084 26.44 32.5084 26.976C32.5084 27.04 32.5044 27.116 32.4964 27.204C32.4884 27.284 32.4724 27.38 32.4484 27.492H27.5644V26.772H31.9924L31.6924 27.036C31.7004 26.62 31.6284 26.264 31.4764 25.968C31.3324 25.664 31.1204 25.432 30.8404 25.272C30.5684 25.104 30.2364 25.02 29.8444 25.02C29.4364 25.02 29.0804 25.108 28.7764 25.284C28.4724 25.46 28.2324 25.708 28.0564 26.028C27.8884 26.34 27.8044 26.712 27.8044 27.144C27.8044 27.576 27.8924 27.956 28.0684 28.284C28.2524 28.612 28.5044 28.868 28.8244 29.052C29.1524 29.236 29.5284 29.328 29.9524 29.328C30.2964 29.328 30.6124 29.268 30.9004 29.148C31.1884 29.02 31.4324 28.832 31.6324 28.584L32.1724 29.136C31.9084 29.448 31.5804 29.692 31.1884 29.868C30.8044 30.036 30.3884 30.12 29.9404 30.12ZM39.4795 30.12C38.8715 30.12 38.3155 29.948 37.8115 29.604C37.3075 29.252 36.9035 28.756 36.5995 28.116C36.3035 27.476 36.1555 26.724 36.1555 25.86C36.1555 24.988 36.3035 24.24 36.5995 23.616C36.8955 22.984 37.2915 22.496 37.7875 22.152C38.2915 21.8 38.8475 21.624 39.4555 21.624C40.0715 21.624 40.6275 21.796 41.1235 22.14C41.6275 22.484 42.0275 22.976 42.3235 23.616C42.6195 24.248 42.7675 25 42.7675 25.872C42.7675 26.736 42.6195 27.488 42.3235 28.128C42.0275 28.768 41.6315 29.26 41.1355 29.604C40.6395 29.948 40.0875 30.12 39.4795 30.12ZM39.4555 29.292C39.9275 29.292 40.3435 29.16 40.7035 28.896C41.0715 28.624 41.3595 28.236 41.5675 27.732C41.7755 27.22 41.8795 26.596 41.8795 25.86C41.8795 25.132 41.7755 24.516 41.5675 24.012C41.3595 23.5 41.0715 23.112 40.7035 22.848C40.3435 22.584 39.9275 22.452 39.4555 22.452C38.9915 22.452 38.5755 22.584 38.2075 22.848C37.8475 23.112 37.5635 23.496 37.3555 24C37.1475 24.504 37.0435 25.124 37.0435 25.86C37.0435 26.596 37.1475 27.22 37.3555 27.732C37.5635 28.236 37.8475 28.624 38.2075 28.896C38.5755 29.16 38.9915 29.292 39.4555 29.292ZM46.3823 30.12C45.8383 30.12 45.3503 30.016 44.9183 29.808C44.4863 29.6 44.1223 29.3 43.8263 28.908L44.4143 28.32C44.6143 28.624 44.8823 28.864 45.2183 29.04C45.5623 29.208 45.9463 29.292 46.3703 29.292C46.7703 29.292 47.1223 29.216 47.4263 29.064C47.7303 28.904 47.9663 28.684 48.1343 28.404C48.3103 28.116 48.3983 27.78 48.3983 27.396C48.3983 27.004 48.3143 26.668 48.1463 26.388C47.9783 26.1 47.7503 25.88 47.4623 25.728C47.1743 25.576 46.8503 25.5 46.4902 25.5C46.1463 25.5 45.8303 25.548 45.5423 25.644C45.2623 25.732 45.0063 25.876 44.7743 26.076L44.7503 25.5C44.8943 25.34 45.0583 25.208 45.2423 25.104C45.4263 25 45.6303 24.92 45.8543 24.864C46.0863 24.808 46.3423 24.78 46.6223 24.78C47.1743 24.78 47.6503 24.9 48.0503 25.14C48.4503 25.372 48.7543 25.688 48.9623 26.088C49.1783 26.488 49.2863 26.94 49.2863 27.444C49.2863 27.964 49.1623 28.424 48.9143 28.824C48.6663 29.224 48.3223 29.54 47.8823 29.772C47.4503 30.004 46.9503 30.12 46.3823 30.12ZM44.7743 26.076L44.3063 25.596L44.6663 21.744H45.4703L45.0743 25.68L44.7743 26.076ZM44.8823 22.524L44.6663 21.744H48.9143V22.524H44.8823ZM50.4603 31.236L51.1443 29.904L51.4443 29.832C51.4123 29.904 51.3683 29.964 51.3123 30.012C51.2563 30.068 51.1883 30.096 51.1083 30.096C50.9563 30.096 50.8163 30.036 50.6883 29.916C50.5683 29.788 50.5083 29.632 50.5083 29.448C50.5083 29.256 50.5763 29.092 50.7123 28.956C50.8483 28.812 51.0123 28.74 51.2043 28.74C51.3883 28.74 51.5483 28.812 51.6843 28.956C51.8283 29.092 51.9003 29.256 51.9003 29.448C51.9003 29.528 51.8843 29.624 51.8523 29.736C51.8283 29.84 51.7723 29.98 51.6843 30.156L50.9643 31.512L50.4603 31.236ZM58.6954 30.12C58.0554 30.12 57.5034 30 57.0394 29.76C56.5754 29.512 56.1674 29.168 55.8154 28.728L56.4274 28.128C56.7074 28.52 57.0314 28.812 57.3994 29.004C57.7754 29.196 58.2194 29.292 58.7314 29.292C59.2594 29.292 59.6874 29.172 60.0154 28.932C60.3434 28.692 60.5074 28.36 60.5074 27.936C60.5074 27.608 60.4314 27.34 60.2794 27.132C60.1274 26.916 59.9274 26.744 59.6794 26.616C59.4394 26.48 59.1714 26.36 58.8754 26.256C58.5794 26.152 58.2834 26.044 57.9874 25.932C57.6994 25.812 57.4314 25.664 57.1834 25.488C56.9354 25.312 56.7354 25.088 56.5834 24.816C56.4394 24.544 56.3674 24.196 56.3674 23.772C56.3674 23.324 56.4754 22.94 56.6914 22.62C56.9074 22.3 57.2034 22.056 57.5794 21.888C57.9554 21.712 58.3834 21.624 58.8634 21.624C59.3994 21.624 59.8754 21.728 60.2914 21.936C60.7154 22.144 61.0674 22.424 61.3474 22.776L60.7474 23.376C60.4914 23.072 60.2114 22.84 59.9074 22.68C59.6034 22.52 59.2474 22.44 58.8394 22.44C58.3594 22.44 57.9754 22.552 57.6874 22.776C57.3994 23 57.2554 23.312 57.2554 23.712C57.2554 24.024 57.3274 24.276 57.4714 24.468C57.6234 24.66 57.8234 24.82 58.0714 24.948C58.3194 25.076 58.5874 25.192 58.8754 25.296C59.1714 25.392 59.4674 25.5 59.7634 25.62C60.0594 25.74 60.3274 25.892 60.5674 26.076C60.8154 26.26 61.0154 26.496 61.1674 26.784C61.3194 27.064 61.3954 27.424 61.3954 27.864C61.3954 28.576 61.1514 29.132 60.6634 29.532C60.1834 29.924 59.5274 30.12 58.6954 30.12ZM63.7319 30V21.984H64.5719V30H63.7319ZM62.3039 25.116V24.36H65.9879V25.116H62.3039ZM67.145 30V24.36H67.985V30H67.145ZM67.985 26.712L67.637 26.556C67.637 25.844 67.809 25.28 68.153 24.864C68.505 24.448 68.985 24.24 69.593 24.24C69.873 24.24 70.129 24.292 70.361 24.396C70.593 24.492 70.809 24.648 71.009 24.864L70.457 25.452C70.321 25.3 70.169 25.192 70.001 25.128C69.841 25.064 69.657 25.032 69.449 25.032C69.017 25.032 68.665 25.176 68.393 25.464C68.121 25.744 67.985 26.16 67.985 26.712ZM74.3076 30.12C73.7396 30.12 73.2316 29.992 72.7836 29.736C72.3356 29.48 71.9796 29.128 71.7156 28.68C71.4596 28.232 71.3316 27.728 71.3316 27.168C71.3316 26.616 71.4596 26.12 71.7156 25.68C71.9716 25.232 72.3196 24.88 72.7596 24.624C73.1996 24.368 73.6916 24.24 74.2356 24.24C74.7476 24.24 75.1996 24.356 75.5916 24.588C75.9916 24.82 76.3036 25.144 76.5276 25.56C76.7596 25.968 76.8756 26.44 76.8756 26.976C76.8756 27.04 76.8716 27.116 76.8636 27.204C76.8556 27.284 76.8396 27.38 76.8156 27.492H71.9316V26.772H76.3596L76.0596 27.036C76.0676 26.62 75.9956 26.264 75.8436 25.968C75.6996 25.664 75.4876 25.432 75.2076 25.272C74.9356 25.104 74.6036 25.02 74.2116 25.02C73.8036 25.02 73.4476 25.108 73.1436 25.284C72.8396 25.46 72.5996 25.708 72.4236 26.028C72.2556 26.34 72.1716 26.712 72.1716 27.144C72.1716 27.576 72.2596 27.956 72.4356 28.284C72.6196 28.612 72.8716 28.868 73.1916 29.052C73.5196 29.236 73.8956 29.328 74.3196 29.328C74.6636 29.328 74.9796 29.268 75.2676 29.148C75.5556 29.02 75.7996 28.832 75.9996 28.584L76.5396 29.136C76.2756 29.448 75.9476 29.692 75.5556 29.868C75.1716 30.036 74.7556 30.12 74.3076 30.12ZM80.7646 30.12C80.1966 30.12 79.6886 29.992 79.2406 29.736C78.7926 29.48 78.4366 29.128 78.1726 28.68C77.9166 28.232 77.7886 27.728 77.7886 27.168C77.7886 26.616 77.9166 26.12 78.1726 25.68C78.4286 25.232 78.7766 24.88 79.2166 24.624C79.6566 24.368 80.1486 24.24 80.6926 24.24C81.2046 24.24 81.6566 24.356 82.0486 24.588C82.4486 24.82 82.7606 25.144 82.9846 25.56C83.2166 25.968 83.3326 26.44 83.3326 26.976C83.3326 27.04 83.3286 27.116 83.3206 27.204C83.3126 27.284 83.2966 27.38 83.2726 27.492H78.3886V26.772H82.8166L82.5166 27.036C82.5246 26.62 82.4526 26.264 82.3006 25.968C82.1566 25.664 81.9446 25.432 81.6646 25.272C81.3926 25.104 81.0606 25.02 80.6686 25.02C80.2606 25.02 79.9046 25.108 79.6006 25.284C79.2966 25.46 79.0566 25.708 78.8806 26.028C78.7126 26.34 78.6286 26.712 78.6286 27.144C78.6286 27.576 78.7166 27.956 78.8926 28.284C79.0766 28.612 79.3286 28.868 79.6486 29.052C79.9766 29.236 80.3526 29.328 80.7766 29.328C81.1206 29.328 81.4366 29.268 81.7246 29.148C82.0126 29.02 82.2566 28.832 82.4566 28.584L82.9966 29.136C82.7326 29.448 82.4046 29.692 82.0126 29.868C81.6286 30.036 81.2126 30.12 80.7646 30.12ZM85.2827 30V21.984H86.1227V30H85.2827ZM83.8547 25.116V24.36H87.5387V25.116H83.8547ZM90.8779 27.264L93.9619 21.744H94.9459L91.8139 27.264H90.8779ZM90.8779 27.816V27.264L91.2499 27.024H97.1299V27.816H90.8779ZM95.0419 30V24.492H95.9059V30H95.0419ZM100.347 30.12C99.8031 30.12 99.3151 30.016 98.8831 29.808C98.4511 29.6 98.0871 29.3 97.7911 28.908L98.3791 28.32C98.5791 28.624 98.8471 28.864 99.1831 29.04C99.5271 29.208 99.9111 29.292 100.335 29.292C100.735 29.292 101.087 29.216 101.391 29.064C101.695 28.904 101.931 28.684 102.099 28.404C102.275 28.116 102.363 27.78 102.363 27.396C102.363 27.004 102.279 26.668 102.111 26.388C101.943 26.1 101.715 25.88 101.427 25.728C101.139 25.576 100.815 25.5 100.455 25.5C100.111 25.5 99.7951 25.548 99.5071 25.644C99.2271 25.732 98.9711 25.876 98.7391 26.076L98.7151 25.5C98.8591 25.34 99.0231 25.208 99.2071 25.104C99.3911 25 99.5951 24.92 99.8191 24.864C100.051 24.808 100.307 24.78 100.587 24.78C101.139 24.78 101.615 24.9 102.015 25.14C102.415 25.372 102.719 25.688 102.927 26.088C103.143 26.488 103.251 26.94 103.251 27.444C103.251 27.964 103.127 28.424 102.879 28.824C102.631 29.224 102.287 29.54 101.847 29.772C101.415 30.004 100.915 30.12 100.347 30.12ZM98.7391 26.076L98.2711 25.596L98.6311 21.744H99.4351L99.0391 25.68L98.7391 26.076ZM98.8471 22.524L98.6311 21.744H102.879V22.524H98.8471ZM107.14 30.12C106.604 30.12 106.128 30.016 105.712 29.808C105.304 29.6 104.984 29.316 104.752 28.956C104.52 28.588 104.404 28.172 104.404 27.708C104.404 27.34 104.476 27.004 104.62 26.7C104.772 26.388 104.984 26.124 105.256 25.908C105.528 25.684 105.844 25.532 106.204 25.452L106.3 25.704C105.98 25.616 105.708 25.476 105.484 25.284C105.26 25.092 105.088 24.864 104.968 24.6C104.848 24.328 104.788 24.044 104.788 23.748C104.788 23.324 104.888 22.956 105.088 22.644C105.296 22.324 105.576 22.072 105.928 21.888C106.288 21.704 106.692 21.612 107.14 21.612C107.596 21.612 108 21.704 108.352 21.888C108.712 22.072 108.992 22.324 109.192 22.644C109.392 22.956 109.492 23.324 109.492 23.748C109.492 24.044 109.432 24.328 109.312 24.6C109.2 24.864 109.032 25.092 108.808 25.284C108.584 25.476 108.308 25.616 107.98 25.704L108.076 25.452C108.444 25.532 108.76 25.684 109.024 25.908C109.296 26.124 109.504 26.388 109.648 26.7C109.8 27.004 109.876 27.34 109.876 27.708C109.876 28.172 109.76 28.588 109.528 28.956C109.304 29.316 108.984 29.6 108.568 29.808C108.16 30.016 107.684 30.12 107.14 30.12ZM107.14 29.328C107.508 29.328 107.832 29.256 108.112 29.112C108.4 28.968 108.624 28.768 108.784 28.512C108.944 28.248 109.024 27.952 109.024 27.624C109.024 27.288 108.944 26.996 108.784 26.748C108.624 26.492 108.4 26.292 108.112 26.148C107.832 25.996 107.508 25.92 107.14 25.92C106.78 25.92 106.456 25.996 106.168 26.148C105.888 26.292 105.664 26.492 105.496 26.748C105.336 26.996 105.256 27.288 105.256 27.624C105.256 27.952 105.336 28.248 105.496 28.512C105.664 28.768 105.888 28.968 106.168 29.112C106.448 29.256 106.772 29.328 107.14 29.328ZM107.14 25.236C107.588 25.236 107.952 25.104 108.232 24.84C108.52 24.568 108.664 24.22 108.664 23.796C108.664 23.372 108.52 23.028 108.232 22.764C107.952 22.5 107.588 22.368 107.14 22.368C106.7 22.368 106.336 22.5 106.048 22.764C105.76 23.028 105.616 23.372 105.616 23.796C105.616 24.22 105.76 24.568 106.048 24.84C106.336 25.104 106.7 25.236 107.14 25.236ZM111.421 31.236L112.105 29.904L112.405 29.832C112.373 29.904 112.329 29.964 112.273 30.012C112.217 30.068 112.149 30.096 112.069 30.096C111.917 30.096 111.777 30.036 111.649 29.916C111.529 29.788 111.469 29.632 111.469 29.448C111.469 29.256 111.537 29.092 111.673 28.956C111.809 28.812 111.973 28.74 112.165 28.74C112.349 28.74 112.509 28.812 112.645 28.956C112.789 29.092 112.861 29.256 112.861 29.448C112.861 29.528 112.845 29.624 112.813 29.736C112.789 29.84 112.733 29.98 112.645 30.156L111.925 31.512L111.421 31.236ZM119.656 30.12C119.016 30.12 118.464 30 118 29.76C117.536 29.512 117.128 29.168 116.776 28.728L117.388 28.128C117.668 28.52 117.992 28.812 118.36 29.004C118.736 29.196 119.18 29.292 119.692 29.292C120.22 29.292 120.648 29.172 120.976 28.932C121.304 28.692 121.468 28.36 121.468 27.936C121.468 27.608 121.392 27.34 121.24 27.132C121.088 26.916 120.888 26.744 120.64 26.616C120.4 26.48 120.132 26.36 119.836 26.256C119.54 26.152 119.244 26.044 118.948 25.932C118.66 25.812 118.392 25.664 118.144 25.488C117.896 25.312 117.696 25.088 117.544 24.816C117.4 24.544 117.328 24.196 117.328 23.772C117.328 23.324 117.436 22.94 117.652 22.62C117.868 22.3 118.164 22.056 118.54 21.888C118.916 21.712 119.344 21.624 119.824 21.624C120.36 21.624 120.836 21.728 121.252 21.936C121.676 22.144 122.028 22.424 122.308 22.776L121.708 23.376C121.452 23.072 121.172 22.84 120.868 22.68C120.564 22.52 120.208 22.44 119.8 22.44C119.32 22.44 118.936 22.552 118.648 22.776C118.36 23 118.216 23.312 118.216 23.712C118.216 24.024 118.288 24.276 118.432 24.468C118.584 24.66 118.784 24.82 119.032 24.948C119.28 25.076 119.548 25.192 119.836 25.296C120.132 25.392 120.428 25.5 120.724 25.62C121.02 25.74 121.288 25.892 121.528 26.076C121.776 26.26 121.976 26.496 122.128 26.784C122.28 27.064 122.356 27.424 122.356 27.864C122.356 28.576 122.112 29.132 121.624 29.532C121.144 29.924 120.488 30.12 119.656 30.12ZM126.315 30.12C125.747 30.12 125.239 29.992 124.791 29.736C124.343 29.48 123.987 29.128 123.723 28.68C123.467 28.232 123.339 27.728 123.339 27.168C123.339 26.616 123.467 26.12 123.723 25.68C123.979 25.232 124.327 24.88 124.767 24.624C125.207 24.368 125.699 24.24 126.243 24.24C126.755 24.24 127.207 24.356 127.599 24.588C127.999 24.82 128.311 25.144 128.535 25.56C128.767 25.968 128.883 26.44 128.883 26.976C128.883 27.04 128.879 27.116 128.871 27.204C128.863 27.284 128.847 27.38 128.823 27.492H123.939V26.772H128.367L128.067 27.036C128.075 26.62 128.003 26.264 127.851 25.968C127.707 25.664 127.495 25.432 127.215 25.272C126.943 25.104 126.611 25.02 126.219 25.02C125.811 25.02 125.455 25.108 125.151 25.284C124.847 25.46 124.607 25.708 124.431 26.028C124.263 26.34 124.179 26.712 124.179 27.144C124.179 27.576 124.267 27.956 124.443 28.284C124.627 28.612 124.879 28.868 125.199 29.052C125.527 29.236 125.903 29.328 126.327 29.328C126.671 29.328 126.987 29.268 127.275 29.148C127.563 29.02 127.807 28.832 128.007 28.584L128.547 29.136C128.283 29.448 127.955 29.692 127.563 29.868C127.179 30.036 126.763 30.12 126.315 30.12ZM132.736 30.12C132.184 30.12 131.684 29.992 131.236 29.736C130.796 29.472 130.444 29.116 130.18 28.668C129.924 28.22 129.796 27.72 129.796 27.168C129.796 26.616 129.924 26.12 130.18 25.68C130.444 25.232 130.796 24.88 131.236 24.624C131.684 24.368 132.184 24.24 132.736 24.24C133.16 24.24 133.556 24.32 133.924 24.48C134.292 24.64 134.604 24.864 134.86 25.152L134.308 25.716C134.116 25.5 133.884 25.336 133.612 25.224C133.34 25.104 133.048 25.044 132.736 25.044C132.336 25.044 131.98 25.136 131.668 25.32C131.356 25.504 131.112 25.756 130.936 26.076C130.76 26.388 130.672 26.752 130.672 27.168C130.672 27.576 130.76 27.944 130.936 28.272C131.112 28.592 131.356 28.844 131.668 29.028C131.98 29.212 132.336 29.304 132.736 29.304C133.056 29.304 133.352 29.248 133.624 29.136C133.896 29.016 134.128 28.848 134.32 28.632L134.884 29.196C134.62 29.492 134.3 29.72 133.924 29.88C133.556 30.04 133.16 30.12 132.736 30.12ZM136.892 30V21.984H137.732V30H136.892ZM135.464 25.116V24.36H139.148V25.116H135.464ZM142.662 30.12C142.118 30.12 141.622 29.988 141.174 29.724C140.734 29.46 140.382 29.104 140.118 28.656C139.862 28.208 139.734 27.708 139.734 27.156C139.734 26.612 139.862 26.12 140.118 25.68C140.382 25.24 140.734 24.892 141.174 24.636C141.622 24.372 142.118 24.24 142.662 24.24C143.214 24.24 143.71 24.368 144.15 24.624C144.59 24.88 144.938 25.232 145.194 25.68C145.458 26.12 145.59 26.612 145.59 27.156C145.59 27.716 145.458 28.22 145.194 28.668C144.938 29.108 144.59 29.46 144.15 29.724C143.71 29.988 143.214 30.12 142.662 30.12ZM142.662 29.304C143.062 29.304 143.414 29.212 143.718 29.028C144.03 28.844 144.274 28.588 144.45 28.26C144.634 27.932 144.726 27.564 144.726 27.156C144.726 26.748 144.634 26.388 144.45 26.076C144.274 25.756 144.03 25.504 143.718 25.32C143.414 25.136 143.062 25.044 142.662 25.044C142.27 25.044 141.918 25.136 141.606 25.32C141.294 25.504 141.05 25.756 140.874 26.076C140.698 26.388 140.61 26.748 140.61 27.156C140.61 27.572 140.698 27.944 140.874 28.272C141.05 28.592 141.294 28.844 141.606 29.028C141.918 29.212 142.27 29.304 142.662 29.304ZM146.926 30V24.36H147.766V30H146.926ZM147.766 26.712L147.418 26.556C147.418 25.844 147.59 25.28 147.934 24.864C148.286 24.448 148.766 24.24 149.374 24.24C149.654 24.24 149.91 24.292 150.142 24.396C150.374 24.492 150.59 24.648 150.79 24.864L150.238 25.452C150.102 25.3 149.95 25.192 149.782 25.128C149.622 25.064 149.438 25.032 149.23 25.032C148.798 25.032 148.446 25.176 148.174 25.464C147.902 25.744 147.766 26.16 147.766 26.712ZM158.409 30.108C157.825 30.108 157.281 30 156.777 29.784C156.273 29.568 155.833 29.268 155.457 28.884C155.081 28.5 154.789 28.052 154.581 27.54C154.373 27.02 154.269 26.46 154.269 25.86C154.269 25.26 154.373 24.704 154.581 24.192C154.797 23.68 155.093 23.232 155.469 22.848C155.845 22.456 156.289 22.152 156.801 21.936C157.313 21.72 157.869 21.612 158.469 21.612C159.133 21.612 159.741 21.744 160.293 22.008C160.853 22.272 161.313 22.644 161.673 23.124L161.061 23.736C160.773 23.328 160.405 23.016 159.957 22.8C159.509 22.576 159.013 22.464 158.469 22.464C157.821 22.464 157.249 22.612 156.753 22.908C156.257 23.196 155.869 23.596 155.589 24.108C155.317 24.62 155.181 25.208 155.181 25.872C155.181 26.528 155.317 27.112 155.589 27.624C155.869 28.136 156.249 28.54 156.729 28.836C157.217 29.124 157.769 29.268 158.385 29.268C159.001 29.268 159.533 29.144 159.981 28.896C160.437 28.648 160.785 28.288 161.025 27.816C161.273 27.344 161.401 26.776 161.409 26.112L161.913 26.484H158.301V25.68H162.321V25.812C162.321 26.74 162.153 27.524 161.817 28.164C161.489 28.804 161.033 29.288 160.449 29.616C159.865 29.944 159.185 30.108 158.409 30.108ZM165.074 30V21.744H165.938V30H165.074ZM163.334 22.524V21.744H165.818V22.524H163.334ZM169.933 30.12C169.405 30.12 168.921 30.016 168.481 29.808C168.049 29.6 167.685 29.3 167.389 28.908L167.977 28.32C168.177 28.624 168.449 28.864 168.793 29.04C169.137 29.208 169.513 29.292 169.921 29.292C170.321 29.292 170.665 29.216 170.953 29.064C171.249 28.912 171.477 28.7 171.637 28.428C171.805 28.148 171.889 27.824 171.889 27.456C171.889 27.08 171.805 26.756 171.637 26.484C171.477 26.212 171.245 26 170.941 25.848C170.645 25.696 170.289 25.62 169.873 25.62C169.737 25.62 169.597 25.628 169.453 25.644C169.317 25.66 169.181 25.688 169.045 25.728L169.381 25.236C169.517 25.164 169.665 25.108 169.825 25.068C169.985 25.028 170.161 25.008 170.353 25.008C170.809 25.008 171.221 25.116 171.589 25.332C171.957 25.54 172.245 25.832 172.453 26.208C172.669 26.576 172.777 27.004 172.777 27.492C172.777 28.012 172.657 28.468 172.417 28.86C172.177 29.252 171.841 29.56 171.409 29.784C170.985 30.008 170.493 30.12 169.933 30.12ZM169.045 25.728V25.188L171.661 22.248L172.681 22.284L170.017 25.26L169.045 25.728ZM167.749 22.524V21.744H172.681V22.284L171.925 22.524H167.749ZM173.619 30.48L176.907 21.3H177.699L174.411 30.48H173.619ZM180.11 30V21.744H180.974V30H180.11ZM178.37 22.524V21.744H180.854V22.524H178.37ZM182.964 31.236L183.648 29.904L183.948 29.832C183.916 29.904 183.872 29.964 183.816 30.012C183.76 30.068 183.692 30.096 183.612 30.096C183.46 30.096 183.32 30.036 183.192 29.916C183.072 29.788 183.012 29.632 183.012 29.448C183.012 29.256 183.08 29.092 183.216 28.956C183.352 28.812 183.516 28.74 183.708 28.74C183.892 28.74 184.052 28.812 184.188 28.956C184.332 29.092 184.404 29.256 184.404 29.448C184.404 29.528 184.388 29.624 184.356 29.736C184.332 29.84 184.276 29.98 184.188 30.156L183.468 31.512L182.964 31.236ZM188.919 30V21.744H189.795V30H188.919ZM193.432 30.12C193.128 30.12 192.836 30.08 192.556 30C192.276 29.912 192.02 29.792 191.788 29.64C191.564 29.488 191.368 29.308 191.2 29.1L191.74 28.548C191.964 28.82 192.216 29.024 192.496 29.16C192.784 29.288 193.104 29.352 193.456 29.352C193.832 29.352 194.124 29.28 194.332 29.136C194.548 28.992 194.656 28.792 194.656 28.536C194.656 28.296 194.58 28.108 194.428 27.972C194.276 27.836 194.08 27.728 193.84 27.648C193.608 27.568 193.36 27.492 193.096 27.42C192.832 27.34 192.58 27.244 192.34 27.132C192.1 27.012 191.904 26.848 191.752 26.64C191.608 26.432 191.536 26.16 191.536 25.824C191.536 25.504 191.612 25.228 191.764 24.996C191.924 24.756 192.148 24.572 192.436 24.444C192.732 24.308 193.08 24.24 193.48 24.24C193.904 24.24 194.288 24.316 194.632 24.468C194.976 24.62 195.252 24.844 195.46 25.14L194.92 25.68C194.752 25.464 194.54 25.3 194.284 25.188C194.036 25.068 193.756 25.008 193.444 25.008C193.084 25.008 192.808 25.08 192.616 25.224C192.432 25.36 192.34 25.54 192.34 25.764C192.34 25.98 192.416 26.152 192.568 26.28C192.72 26.4 192.912 26.5 193.144 26.58C193.384 26.652 193.636 26.728 193.9 26.808C194.164 26.88 194.416 26.98 194.656 27.108C194.896 27.228 195.088 27.396 195.232 27.612C195.384 27.82 195.46 28.104 195.46 28.464C195.46 28.968 195.276 29.372 194.908 29.676C194.548 29.972 194.056 30.12 193.432 30.12ZM196.79 30V21.504H197.63V30H196.79ZM201.78 30.12C201.244 30.12 200.764 29.992 200.34 29.736C199.916 29.472 199.58 29.12 199.332 28.68C199.092 28.24 198.972 27.744 198.972 27.192C198.972 26.632 199.092 26.132 199.332 25.692C199.58 25.244 199.916 24.892 200.34 24.636C200.764 24.372 201.24 24.24 201.768 24.24C202.2 24.24 202.584 24.328 202.92 24.504C203.264 24.672 203.54 24.912 203.748 25.224C203.964 25.528 204.096 25.884 204.144 26.292V28.056C204.096 28.464 203.964 28.824 203.748 29.136C203.54 29.448 203.264 29.692 202.92 29.868C202.584 30.036 202.204 30.12 201.78 30.12ZM201.912 29.316C202.496 29.316 202.964 29.12 203.316 28.728C203.676 28.336 203.856 27.82 203.856 27.18C203.856 26.756 203.772 26.384 203.604 26.064C203.444 25.736 203.216 25.484 202.92 25.308C202.632 25.124 202.292 25.032 201.9 25.032C201.5 25.032 201.144 25.124 200.832 25.308C200.528 25.492 200.284 25.748 200.1 26.076C199.924 26.396 199.836 26.764 199.836 27.18C199.836 27.596 199.924 27.964 200.1 28.284C200.284 28.604 200.532 28.856 200.844 29.04C201.156 29.224 201.512 29.316 201.912 29.316ZM203.808 30V28.488L203.976 27.096L203.808 25.74V24.36H204.648V30H203.808ZM206.352 30V24.36H207.192V30H206.352ZM210.228 30V26.544C210.228 26.08 210.088 25.712 209.808 25.44C209.528 25.16 209.176 25.02 208.752 25.02C208.464 25.02 208.2 25.084 207.96 25.212C207.728 25.332 207.54 25.504 207.396 25.728C207.26 25.952 207.192 26.22 207.192 26.532L206.808 26.376C206.808 25.944 206.904 25.568 207.096 25.248C207.288 24.928 207.544 24.68 207.864 24.504C208.192 24.328 208.56 24.24 208.968 24.24C209.368 24.24 209.724 24.328 210.036 24.504C210.356 24.68 210.608 24.928 210.792 25.248C210.984 25.568 211.08 25.948 211.08 26.388V30H210.228ZM214.116 30V26.544C214.116 26.08 213.976 25.712 213.696 25.44C213.416 25.16 213.06 25.02 212.628 25.02C212.348 25.02 212.088 25.084 211.848 25.212C211.616 25.332 211.428 25.504 211.284 25.728C211.148 25.952 211.08 26.22 211.08 26.532L210.576 26.376C210.6 25.944 210.712 25.568 210.912 25.248C211.12 24.928 211.388 24.68 211.716 24.504C212.052 24.328 212.42 24.24 212.82 24.24C213.22 24.24 213.58 24.328 213.9 24.504C214.228 24.68 214.484 24.928 214.668 25.248C214.86 25.568 214.956 25.948 214.956 26.388V30H214.116ZM218.984 30.12C218.448 30.12 217.968 29.992 217.544 29.736C217.12 29.472 216.784 29.12 216.536 28.68C216.296 28.24 216.176 27.744 216.176 27.192C216.176 26.632 216.296 26.132 216.536 25.692C216.784 25.244 217.12 24.892 217.544 24.636C217.968 24.372 218.444 24.24 218.972 24.24C219.404 24.24 219.788 24.328 220.124 24.504C220.468 24.672 220.744 24.912 220.952 25.224C221.168 25.528 221.3 25.884 221.348 26.292V28.056C221.3 28.464 221.168 28.824 220.952 29.136C220.744 29.448 220.468 29.692 220.124 29.868C219.788 30.036 219.408 30.12 218.984 30.12ZM219.116 29.316C219.7 29.316 220.168 29.12 220.52 28.728C220.88 28.336 221.06 27.82 221.06 27.18C221.06 26.756 220.976 26.384 220.808 26.064C220.648 25.736 220.42 25.484 220.124 25.308C219.836 25.124 219.496 25.032 219.104 25.032C218.704 25.032 218.348 25.124 218.036 25.308C217.732 25.492 217.488 25.748 217.304 26.076C217.128 26.396 217.04 26.764 217.04 27.18C217.04 27.596 217.128 27.964 217.304 28.284C217.488 28.604 217.736 28.856 218.048 29.04C218.36 29.224 218.716 29.316 219.116 29.316ZM221.012 30V28.488L221.18 27.096L221.012 25.74V24.36H221.852V30H221.012ZM226.471 30.12C226.039 30.12 225.651 30.032 225.307 29.856C224.963 29.68 224.679 29.44 224.455 29.136C224.239 28.824 224.107 28.464 224.059 28.056V26.292C224.107 25.876 224.243 25.516 224.467 25.212C224.691 24.9 224.975 24.66 225.319 24.492C225.671 24.324 226.055 24.24 226.471 24.24C226.991 24.24 227.459 24.372 227.875 24.636C228.291 24.892 228.619 25.244 228.859 25.692C229.107 26.132 229.231 26.632 229.231 27.192C229.231 27.744 229.111 28.24 228.871 28.68C228.631 29.12 228.299 29.472 227.875 29.736C227.459 29.992 226.991 30.12 226.471 30.12ZM226.327 29.316C226.727 29.316 227.079 29.228 227.383 29.052C227.687 28.868 227.923 28.616 228.091 28.296C228.267 27.968 228.355 27.596 228.355 27.18C228.355 26.756 228.267 26.384 228.091 26.064C227.923 25.744 227.687 25.492 227.383 25.308C227.079 25.124 226.731 25.032 226.339 25.032C225.947 25.032 225.599 25.124 225.295 25.308C224.999 25.492 224.767 25.744 224.599 26.064C224.431 26.384 224.347 26.756 224.347 27.18C224.347 27.596 224.431 27.968 224.599 28.296C224.767 28.616 224.999 28.868 225.295 29.052C225.591 29.228 225.935 29.316 226.327 29.316ZM223.555 30V21.504H224.395V25.74L224.227 27.096L224.395 28.488V30H223.555ZM233.023 30.12C232.487 30.12 232.007 29.992 231.583 29.736C231.159 29.472 230.823 29.12 230.575 28.68C230.335 28.24 230.215 27.744 230.215 27.192C230.215 26.632 230.335 26.132 230.575 25.692C230.823 25.244 231.159 24.892 231.583 24.636C232.007 24.372 232.483 24.24 233.011 24.24C233.443 24.24 233.827 24.328 234.163 24.504C234.507 24.672 234.783 24.912 234.991 25.224C235.207 25.528 235.339 25.884 235.387 26.292V28.056C235.339 28.464 235.207 28.824 234.991 29.136C234.783 29.448 234.507 29.692 234.163 29.868C233.827 30.036 233.447 30.12 233.023 30.12ZM233.155 29.316C233.739 29.316 234.207 29.12 234.559 28.728C234.919 28.336 235.099 27.82 235.099 27.18C235.099 26.756 235.015 26.384 234.847 26.064C234.687 25.736 234.459 25.484 234.163 25.308C233.875 25.124 233.535 25.032 233.143 25.032C232.743 25.032 232.387 25.124 232.075 25.308C231.771 25.492 231.527 25.748 231.343 26.076C231.167 26.396 231.079 26.764 231.079 27.18C231.079 27.596 231.167 27.964 231.343 28.284C231.527 28.604 231.775 28.856 232.087 29.04C232.399 29.224 232.755 29.316 233.155 29.316ZM235.051 30V28.488L235.219 27.096L235.051 25.74V24.36H235.891V30H235.051ZM239.994 30.12C239.474 30.12 239.006 29.992 238.59 29.736C238.174 29.48 237.842 29.132 237.594 28.692C237.354 28.244 237.234 27.744 237.234 27.192C237.234 26.632 237.354 26.132 237.594 25.692C237.842 25.244 238.174 24.892 238.59 24.636C239.006 24.372 239.474 24.24 239.994 24.24C240.418 24.24 240.802 24.324 241.146 24.492C241.49 24.66 241.774 24.9 241.998 25.212C242.23 25.516 242.366 25.876 242.406 26.292V28.056C242.358 28.464 242.222 28.824 241.998 29.136C241.782 29.44 241.502 29.68 241.158 29.856C240.814 30.032 240.426 30.12 239.994 30.12ZM240.138 29.316C240.53 29.316 240.874 29.228 241.17 29.052C241.466 28.868 241.698 28.616 241.866 28.296C242.034 27.968 242.118 27.596 242.118 27.18C242.118 26.756 242.03 26.384 241.854 26.064C241.686 25.744 241.454 25.492 241.158 25.308C240.862 25.124 240.518 25.032 240.126 25.032C239.734 25.032 239.386 25.124 239.082 25.308C238.778 25.492 238.538 25.748 238.362 26.076C238.194 26.396 238.11 26.764 238.11 27.18C238.11 27.596 238.194 27.968 238.362 28.296C238.538 28.616 238.778 28.868 239.082 29.052C239.394 29.228 239.746 29.316 240.138 29.316ZM242.91 30H242.07V28.488L242.238 27.096L242.07 25.74V21.504H242.91V30ZM244.734 31.236L245.418 29.904L245.718 29.832C245.686 29.904 245.642 29.964 245.586 30.012C245.53 30.068 245.462 30.096 245.382 30.096C245.23 30.096 245.09 30.036 244.962 29.916C244.842 29.788 244.782 29.632 244.782 29.448C244.782 29.256 244.85 29.092 244.986 28.956C245.122 28.812 245.286 28.74 245.478 28.74C245.662 28.74 245.822 28.812 245.958 28.956C246.102 29.092 246.174 29.256 246.174 29.448C246.174 29.528 246.158 29.624 246.126 29.736C246.102 29.84 246.046 29.98 245.958 30.156L245.238 31.512L244.734 31.236ZM251.253 26.688V25.908H253.689C254.025 25.908 254.325 25.84 254.589 25.704C254.861 25.568 255.073 25.376 255.225 25.128C255.385 24.872 255.465 24.568 255.465 24.216C255.465 23.864 255.385 23.564 255.225 23.316C255.073 23.06 254.861 22.864 254.589 22.728C254.325 22.584 254.025 22.512 253.689 22.512H251.253V21.744H253.749C254.245 21.744 254.689 21.848 255.081 22.056C255.473 22.256 255.781 22.54 256.005 22.908C256.237 23.276 256.353 23.712 256.353 24.216C256.353 24.712 256.237 25.148 256.005 25.524C255.781 25.892 255.473 26.18 255.081 26.388C254.689 26.588 254.245 26.688 253.749 26.688H251.253ZM250.689 30V21.744H251.565V30H250.689ZM259.87 30.12C259.334 30.12 258.854 29.992 258.43 29.736C258.006 29.472 257.67 29.12 257.422 28.68C257.182 28.24 257.062 27.744 257.062 27.192C257.062 26.632 257.182 26.132 257.422 25.692C257.67 25.244 258.006 24.892 258.43 24.636C258.854 24.372 259.33 24.24 259.858 24.24C260.29 24.24 260.674 24.328 261.01 24.504C261.354 24.672 261.63 24.912 261.838 25.224C262.054 25.528 262.186 25.884 262.234 26.292V28.056C262.186 28.464 262.054 28.824 261.838 29.136C261.63 29.448 261.354 29.692 261.01 29.868C260.674 30.036 260.294 30.12 259.87 30.12ZM260.002 29.316C260.586 29.316 261.054 29.12 261.406 28.728C261.766 28.336 261.946 27.82 261.946 27.18C261.946 26.756 261.862 26.384 261.694 26.064C261.534 25.736 261.306 25.484 261.01 25.308C260.722 25.124 260.382 25.032 259.99 25.032C259.59 25.032 259.234 25.124 258.922 25.308C258.618 25.492 258.374 25.748 258.19 26.076C258.014 26.396 257.926 26.764 257.926 27.18C257.926 27.596 258.014 27.964 258.19 28.284C258.374 28.604 258.622 28.856 258.934 29.04C259.246 29.224 259.602 29.316 260.002 29.316ZM261.898 30V28.488L262.066 27.096L261.898 25.74V24.36H262.738V30H261.898ZM268.078 30L265.198 27.108L268.03 24.36H269.074L265.99 27.324L266.014 26.844L269.194 30H268.078ZM264.442 30V21.504H265.282V30H264.442ZM270.043 30V24.36H270.895V30H270.043ZM270.463 23.136C270.303 23.136 270.167 23.08 270.055 22.968C269.943 22.848 269.887 22.708 269.887 22.548C269.887 22.38 269.943 22.24 270.055 22.128C270.167 22.016 270.303 21.96 270.463 21.96C270.639 21.96 270.779 22.016 270.883 22.128C270.995 22.24 271.051 22.38 271.051 22.548C271.051 22.708 270.995 22.848 270.883 22.968C270.779 23.08 270.639 23.136 270.463 23.136ZM274.326 30.12C274.022 30.12 273.73 30.08 273.45 30C273.17 29.912 272.914 29.792 272.682 29.64C272.458 29.488 272.262 29.308 272.094 29.1L272.634 28.548C272.858 28.82 273.11 29.024 273.39 29.16C273.678 29.288 273.998 29.352 274.35 29.352C274.726 29.352 275.018 29.28 275.226 29.136C275.442 28.992 275.55 28.792 275.55 28.536C275.55 28.296 275.474 28.108 275.322 27.972C275.17 27.836 274.974 27.728 274.734 27.648C274.502 27.568 274.254 27.492 273.99 27.42C273.726 27.34 273.474 27.244 273.234 27.132C272.994 27.012 272.798 26.848 272.646 26.64C272.502 26.432 272.43 26.16 272.43 25.824C272.43 25.504 272.506 25.228 272.658 24.996C272.818 24.756 273.042 24.572 273.33 24.444C273.626 24.308 273.974 24.24 274.374 24.24C274.798 24.24 275.182 24.316 275.526 24.468C275.87 24.62 276.146 24.844 276.354 25.14L275.814 25.68C275.646 25.464 275.434 25.3 275.178 25.188C274.93 25.068 274.65 25.008 274.338 25.008C273.978 25.008 273.702 25.08 273.51 25.224C273.326 25.36 273.234 25.54 273.234 25.764C273.234 25.98 273.31 26.152 273.462 26.28C273.614 26.4 273.806 26.5 274.038 26.58C274.278 26.652 274.53 26.728 274.794 26.808C275.058 26.88 275.31 26.98 275.55 27.108C275.79 27.228 275.982 27.396 276.126 27.612C276.278 27.82 276.354 28.104 276.354 28.464C276.354 28.968 276.17 29.372 275.802 29.676C275.442 29.972 274.95 30.12 274.326 30.12ZM278.56 30V21.984H279.4V30H278.56ZM277.132 25.116V24.36H280.816V25.116H277.132ZM284.222 30.12C283.686 30.12 283.206 29.992 282.782 29.736C282.358 29.472 282.022 29.12 281.774 28.68C281.534 28.24 281.414 27.744 281.414 27.192C281.414 26.632 281.534 26.132 281.774 25.692C282.022 25.244 282.358 24.892 282.782 24.636C283.206 24.372 283.682 24.24 284.21 24.24C284.642 24.24 285.026 24.328 285.362 24.504C285.706 24.672 285.982 24.912 286.19 25.224C286.406 25.528 286.538 25.884 286.586 26.292V28.056C286.538 28.464 286.406 28.824 286.19 29.136C285.982 29.448 285.706 29.692 285.362 29.868C285.026 30.036 284.646 30.12 284.222 30.12ZM284.354 29.316C284.938 29.316 285.406 29.12 285.758 28.728C286.118 28.336 286.298 27.82 286.298 27.18C286.298 26.756 286.214 26.384 286.046 26.064C285.886 25.736 285.658 25.484 285.362 25.308C285.074 25.124 284.734 25.032 284.342 25.032C283.942 25.032 283.586 25.124 283.274 25.308C282.97 25.492 282.726 25.748 282.542 26.076C282.366 26.396 282.278 26.764 282.278 27.18C282.278 27.596 282.366 27.964 282.542 28.284C282.726 28.604 282.974 28.856 283.286 29.04C283.598 29.224 283.954 29.316 284.354 29.316ZM286.25 30V28.488L286.418 27.096L286.25 25.74V24.36H287.09V30H286.25ZM292.897 30V26.688C292.897 26.192 292.749 25.792 292.453 25.488C292.165 25.176 291.781 25.02 291.301 25.02C290.973 25.02 290.685 25.092 290.437 25.236C290.189 25.38 289.993 25.576 289.849 25.824C289.705 26.072 289.633 26.356 289.633 26.676L289.249 26.46C289.249 26.036 289.349 25.656 289.549 25.32C289.749 24.984 290.017 24.72 290.353 24.528C290.697 24.336 291.089 24.24 291.529 24.24C291.961 24.24 292.345 24.344 292.681 24.552C293.017 24.76 293.277 25.04 293.461 25.392C293.653 25.744 293.749 26.128 293.749 26.544V30H292.897ZM288.793 30V24.36H289.633V30H288.793Z" fill="#333333"/>
</svg>
