<svg width="21" height="21" viewBox="0 0 21 21" fill="none" xmlns="http://www.w3.org/2000/svg">
<path d="M0.00149949 0.749839C0.00149949 0.55097 0.0804964 0.360245 0.221111 0.219623C0.361727 0.0790005 0.552441 0 0.751301 0H1.40813C2.49834 0 3.12517 0.709348 3.48808 1.4172C3.73551 1.90159 3.91396 2.49247 4.06243 3.00536H19.5008C19.7326 3.00542 19.9611 3.05919 20.1685 3.16244C20.376 3.26568 20.5567 3.4156 20.6965 3.60042C20.8362 3.78524 20.9313 3.99994 20.9741 4.22767C21.017 4.4554 21.0065 4.68996 20.9435 4.91295L18.7001 12.8238C18.5216 13.4514 18.1434 14.0037 17.6227 14.3969C17.102 14.7902 16.4673 15.0029 15.8148 15.0028H8.19833C7.54042 15.003 6.90068 14.7869 6.37769 14.3877C5.85469 13.9885 5.47746 13.4285 5.3041 12.7938L4.34135 9.26201C4.33583 9.24619 4.33083 9.23018 4.32636 9.21403L2.78026 3.96965L2.6303 3.46426C2.48034 2.94537 2.34838 2.48647 2.15043 2.10105C1.91199 1.63615 1.69305 1.50118 1.40663 1.50118H0.749802C0.550942 1.50118 0.360227 1.42218 0.219612 1.28156C0.0789965 1.14093 0 0.950209 0 0.751339L0.00149949 0.749839ZM5.77197 8.80911L6.75121 12.4023C6.83803 12.7195 7.02671 12.9994 7.2882 13.1989C7.54968 13.3983 7.86947 13.5063 8.19833 13.5061H15.8163C16.1424 13.5058 16.4595 13.3992 16.7195 13.2024C16.9796 13.0057 17.1684 12.7295 17.2574 12.4158L19.5008 4.50503H4.50481L5.77197 8.80911ZM10.5032 18.7505C10.5032 19.3471 10.2662 19.9193 9.84439 20.3411C9.42254 20.763 8.8504 21 8.25382 21C7.65724 21 7.08509 20.763 6.66325 20.3411C6.2414 19.9193 6.00441 19.3471 6.00441 18.7505C6.00441 18.1539 6.2414 17.5817 6.66325 17.1598C7.08509 16.738 7.65724 16.501 8.25382 16.501C8.8504 16.501 9.42254 16.738 9.84439 17.1598C10.2662 17.5817 10.5032 18.1539 10.5032 18.7505ZM9.00362 18.7505C9.00362 18.5516 8.92462 18.3609 8.78401 18.2203C8.64339 18.0796 8.45268 18.0006 8.25382 18.0006C8.05496 18.0006 7.86424 18.0796 7.72363 18.2203C7.58301 18.3609 7.50401 18.5516 7.50401 18.7505C7.50401 18.9494 7.58301 19.1401 7.72363 19.2807C7.86424 19.4213 8.05496 19.5003 8.25382 19.5003C8.45268 19.5003 8.64339 19.4213 8.78401 19.2807C8.92462 19.1401 9.00362 18.9494 9.00362 18.7505ZM18.0012 18.7505C18.0012 19.3471 17.7642 19.9193 17.3424 20.3411C16.9206 20.763 16.3484 21 15.7518 21C15.1553 21 14.5831 20.763 14.1613 20.3411C13.7394 19.9193 13.5024 19.3471 13.5024 18.7505C13.5024 18.1539 13.7394 17.5817 14.1613 17.1598C14.5831 16.738 15.1553 16.501 15.7518 16.501C16.3484 16.501 16.9206 16.738 17.3424 17.1598C17.7642 17.5817 18.0012 18.1539 18.0012 18.7505ZM16.5016 18.7505C16.5016 18.5516 16.4226 18.3609 16.282 18.2203C16.1414 18.0796 15.9507 18.0006 15.7518 18.0006C15.553 18.0006 15.3623 18.0796 15.2216 18.2203C15.081 18.3609 15.002 18.5516 15.002 18.7505C15.002 18.9494 15.081 19.1401 15.2216 19.2807C15.3623 19.4213 15.553 19.5003 15.7518 19.5003C15.9507 19.5003 16.1414 19.4213 16.282 19.2807C16.4226 19.1401 16.5016 18.9494 16.5016 18.7505Z" fill="#666666"/>
</svg>
