<svg width="10" height="11" viewBox="0 0 10 11" fill="none" xmlns="http://www.w3.org/2000/svg">
<path d="M5.44193 1.56235L6.25852 3.19554C6.36988 3.42289 6.66682 3.64095 6.91737 3.68271L8.39745 3.92862C9.34395 4.08637 9.56666 4.77305 8.88462 5.45046L7.73396 6.60111C7.53909 6.79598 7.43238 7.1718 7.49269 7.44091L7.82212 8.86531C8.08194 9.99277 7.48342 10.4289 6.48587 9.83965L5.09859 9.01842C4.84804 8.86995 4.4351 8.86995 4.17992 9.01842L2.79263 9.83965C1.79973 10.4289 1.19656 9.98813 1.45639 8.86531L1.78581 7.44091C1.84612 7.1718 1.73941 6.79598 1.54454 6.60111L0.393883 5.45046C-0.28352 4.77305 -0.0654516 4.08637 0.881057 3.92862L2.36114 3.68271C2.60704 3.64095 2.90399 3.42289 3.01534 3.19554L3.83194 1.56235C4.27735 0.676157 5.00115 0.676157 5.44193 1.56235Z" fill="#FFC107"/>
</svg>
