<svg width="15" height="15" viewBox="0 0 15 15" fill="none" xmlns="http://www.w3.org/2000/svg">
<mask id="mask0_644_5084" style="mask-type:alpha" maskUnits="userSpaceOnUse" x="0" y="0" width="15" height="15">
<path d="M8.35061 1.4353L9.60367 3.96214C9.77454 4.31388 10.2302 4.65127 10.6147 4.71588L12.8858 5.09634C14.3383 5.34041 14.68 6.40283 13.6334 7.45089L11.8677 9.23116C11.5687 9.53266 11.4049 10.1141 11.4975 10.5305L12.003 12.7343C12.4017 14.4786 11.4833 15.1534 9.95254 14.2418L7.82376 12.9712C7.43929 12.7414 6.80564 12.7414 6.41406 12.9712L4.28528 14.2418C2.76167 15.1534 1.83611 14.4715 2.23482 12.7343L2.74031 10.5305C2.83287 10.1141 2.66912 9.53266 2.37009 9.23116L0.604412 7.45089C-0.43506 6.40283 -0.100435 5.34041 1.35198 5.09634L3.62315 4.71588C4.00049 4.65127 4.45615 4.31388 4.62702 3.96214L5.88009 1.4353C6.56357 0.0642089 7.67424 0.0642089 8.35061 1.4353Z" fill="#FFC107"/>
</mask>
<g mask="url(#mask0_644_5084)">
<rect y="-1.13989" width="9.20697" height="17.0189" fill="#FFC107"/>
</g>
</svg>
