<svg width="26" height="28" viewBox="0 0 26 28" fill="none" xmlns="http://www.w3.org/2000/svg">
<rect x="0.722133" y="0.789882" width="24.2873" height="26.2898" rx="3.14612" stroke="#637083" stroke-width="0.299631"/>
<path d="M8.81772 18.0548C8.25772 18.0548 7.74972 17.9548 7.29372 17.7548C6.84572 17.5468 6.46572 17.2468 6.15372 16.8548L7.08972 15.9188C7.25772 16.1748 7.49372 16.3788 7.79772 16.5308C8.10172 16.6828 8.43372 16.7588 8.79372 16.7588C9.13772 16.7588 9.43372 16.6948 9.68172 16.5668C9.92972 16.4388 10.1217 16.2588 10.2577 16.0268C10.4017 15.7948 10.4737 15.5268 10.4737 15.2228C10.4737 14.9028 10.4017 14.6308 10.2577 14.4068C10.1217 14.1828 9.92172 14.0108 9.65772 13.8908C9.40172 13.7628 9.08972 13.6988 8.72172 13.6988C8.57772 13.6988 8.42972 13.7108 8.27772 13.7348C8.12572 13.7508 7.98972 13.7788 7.86972 13.8188L8.48172 13.0268C8.64972 12.9628 8.82572 12.9108 9.00972 12.8708C9.20172 12.8228 9.38572 12.7988 9.56172 12.7988C9.99372 12.7988 10.3817 12.9028 10.7257 13.1108C11.0777 13.3188 11.3537 13.6108 11.5537 13.9868C11.7617 14.3548 11.8657 14.7908 11.8657 15.2948C11.8657 15.8388 11.7377 16.3188 11.4817 16.7348C11.2257 17.1508 10.8697 17.4748 10.4137 17.7068C9.95772 17.9388 9.42572 18.0548 8.81772 18.0548ZM7.86972 13.8188V13.0028L10.1137 10.3868L11.7697 10.3508L9.42972 13.0388L7.86972 13.8188ZM6.57372 10.7708V9.53481H11.7697V10.3508L10.5817 10.7708H6.57372ZM15.7182 18.0548C15.1582 18.0548 14.6542 17.9268 14.2062 17.6708C13.7582 17.4068 13.4022 17.0548 13.1382 16.6148C12.8822 16.1748 12.7542 15.6868 12.7542 15.1508C12.7542 14.3828 13.0222 13.6068 13.5582 12.8228L15.8502 9.53481H17.4462L14.9982 12.9788L14.4942 13.2788C14.5742 13.0948 14.6742 12.9388 14.7942 12.8108C14.9222 12.6748 15.0862 12.5708 15.2862 12.4988C15.4942 12.4268 15.7502 12.3908 16.0542 12.3908C16.5422 12.3908 16.9822 12.5068 17.3742 12.7388C17.7742 12.9628 18.0942 13.2788 18.3342 13.6868C18.5742 14.0868 18.6942 14.5588 18.6942 15.1028C18.6942 15.6468 18.5622 16.1428 18.2982 16.5908C18.0342 17.0388 17.6742 17.3948 17.2182 17.6588C16.7702 17.9228 16.2702 18.0548 15.7182 18.0548ZM15.7182 16.7588C16.0222 16.7588 16.2942 16.6868 16.5342 16.5428C16.7742 16.3988 16.9622 16.2028 17.0982 15.9548C17.2422 15.6988 17.3142 15.4148 17.3142 15.1028C17.3142 14.7908 17.2422 14.5108 17.0982 14.2628C16.9622 14.0148 16.7742 13.8228 16.5342 13.6868C16.2942 13.5428 16.0222 13.4708 15.7182 13.4708C15.4142 13.4708 15.1422 13.5428 14.9022 13.6868C14.6622 13.8308 14.4742 14.0268 14.3382 14.2748C14.2022 14.5148 14.1342 14.7908 14.1342 15.1028C14.1342 15.4148 14.2022 15.6988 14.3382 15.9548C14.4742 16.2028 14.6622 16.3988 14.9022 16.5428C15.1422 16.6868 15.4142 16.7588 15.7182 16.7588Z" fill="black"/>
</svg>
