<svg width="25" height="28" viewBox="0 0 25 28" fill="none" xmlns="http://www.w3.org/2000/svg">
<rect x="0.970459" y="0.939697" width="22.9877" height="25.9901" rx="2.99631" stroke="#FF6347"/>
<path d="M8.91623 18.0548C8.35623 18.0548 7.84823 17.9548 7.39223 17.7548C6.94423 17.5468 6.56423 17.2468 6.25223 16.8548L7.18823 15.9188C7.35623 16.1748 7.59223 16.3788 7.89623 16.5308C8.20023 16.6828 8.53223 16.7588 8.89223 16.7588C9.23623 16.7588 9.53223 16.6948 9.78023 16.5668C10.0282 16.4388 10.2202 16.2588 10.3562 16.0268C10.5002 15.7948 10.5722 15.5268 10.5722 15.2228C10.5722 14.9028 10.5002 14.6308 10.3562 14.4068C10.2202 14.1828 10.0202 14.0108 9.75623 13.8908C9.50023 13.7628 9.18823 13.6988 8.82023 13.6988C8.67623 13.6988 8.52823 13.7108 8.37623 13.7348C8.22423 13.7508 8.08823 13.7788 7.96823 13.8188L8.58023 13.0268C8.74823 12.9628 8.92423 12.9108 9.10823 12.8708C9.30023 12.8228 9.48423 12.7988 9.66023 12.7988C10.0922 12.7988 10.4802 12.9028 10.8242 13.1108C11.1762 13.3188 11.4522 13.6108 11.6522 13.9868C11.8602 14.3548 11.9642 14.7908 11.9642 15.2948C11.9642 15.8388 11.8362 16.3188 11.5802 16.7348C11.3242 17.1508 10.9682 17.4748 10.5122 17.7068C10.0562 17.9388 9.52423 18.0548 8.91623 18.0548ZM7.96823 13.8188V13.0028L10.2122 10.3868L11.8682 10.3508L9.52823 13.0388L7.96823 13.8188ZM6.67223 10.7708V9.53481H11.8682V10.3508L10.6802 10.7708H6.67223ZM12.7807 17.1188L15.8767 13.8308C16.1327 13.5588 16.3407 13.3148 16.5007 13.0988C16.6607 12.8828 16.7767 12.6788 16.8487 12.4868C16.9207 12.2948 16.9567 12.0988 16.9567 11.8988C16.9567 11.5228 16.8327 11.2308 16.5847 11.0228C16.3447 10.8068 16.0367 10.6988 15.6607 10.6988C15.2607 10.6988 14.9087 10.7988 14.6047 10.9988C14.3007 11.1988 14.0287 11.5108 13.7887 11.9348L12.8287 11.1428C13.1567 10.5748 13.5607 10.1468 14.0407 9.85881C14.5207 9.56281 15.0767 9.41481 15.7087 9.41481C16.2287 9.41481 16.6847 9.51881 17.0767 9.72681C17.4687 9.93481 17.7727 10.2268 17.9887 10.6028C18.2047 10.9708 18.3127 11.3988 18.3127 11.8868C18.3127 12.2388 18.2687 12.5548 18.1807 12.8348C18.1007 13.1068 17.9607 13.3828 17.7607 13.6628C17.5607 13.9348 17.2847 14.2548 16.9327 14.6228L14.5567 17.0828L12.7807 17.1188ZM12.7807 17.9348V17.1188L13.9687 16.6988H18.4807V17.9348H12.7807Z" fill="black"/>
</svg>
