<svg width="27" height="28" viewBox="0 0 27 28" fill="none" xmlns="http://www.w3.org/2000/svg">
<rect x="0.850185" y="0.789882" width="25.2824" height="26.2898" rx="3.14612" stroke="#637083" stroke-width="0.299631"/>
<path d="M10.9433 18.0548C10.3833 18.0548 9.87533 17.9548 9.41933 17.7548C8.97133 17.5468 8.59133 17.2468 8.27933 16.8548L9.21533 15.9188C9.38333 16.1748 9.61933 16.3788 9.92333 16.5308C10.2273 16.6828 10.5593 16.7588 10.9193 16.7588C11.2633 16.7588 11.5593 16.6948 11.8073 16.5668C12.0553 16.4388 12.2473 16.2588 12.3833 16.0268C12.5273 15.7948 12.5993 15.5268 12.5993 15.2228C12.5993 14.9028 12.5273 14.6308 12.3833 14.4068C12.2473 14.1828 12.0473 14.0108 11.7833 13.8908C11.5273 13.7628 11.2153 13.6988 10.8473 13.6988C10.7033 13.6988 10.5553 13.7108 10.4033 13.7348C10.2513 13.7508 10.1153 13.7788 9.99533 13.8188L10.6073 13.0268C10.7753 12.9628 10.9513 12.9108 11.1353 12.8708C11.3273 12.8228 11.5113 12.7988 11.6873 12.7988C12.1193 12.7988 12.5073 12.9028 12.8513 13.1108C13.2033 13.3188 13.4793 13.6108 13.6793 13.9868C13.8873 14.3548 13.9913 14.7908 13.9913 15.2948C13.9913 15.8388 13.8633 16.3188 13.6073 16.7348C13.3513 17.1508 12.9953 17.4748 12.5393 17.7068C12.0833 17.9388 11.5513 18.0548 10.9433 18.0548ZM9.99533 13.8188V13.0028L12.2393 10.3868L13.8953 10.3508L11.5553 13.0388L9.99533 13.8188ZM8.69933 10.7708V9.53481H13.8953V10.3508L12.7073 10.7708H8.69933ZM16.4638 17.9348V9.53481H17.8198V17.9348H16.4638ZM14.7838 10.7708V9.53481H17.6998V10.7708H14.7838Z" fill="black"/>
</svg>
