<svg width="26" height="28" viewBox="0 0 26 28" fill="none" xmlns="http://www.w3.org/2000/svg">
<rect x="0.771327" y="0.789882" width="24.2873" height="26.2898" rx="3.14612" stroke="#637083" stroke-width="0.299631"/>
<path d="M8.86692 18.0548C8.30692 18.0548 7.79892 17.9548 7.34292 17.7548C6.89492 17.5468 6.51492 17.2468 6.20292 16.8548L7.13892 15.9188C7.30692 16.1748 7.54292 16.3788 7.84692 16.5308C8.15092 16.6828 8.48292 16.7588 8.84292 16.7588C9.18692 16.7588 9.48292 16.6948 9.73092 16.5668C9.97892 16.4388 10.1709 16.2588 10.3069 16.0268C10.4509 15.7948 10.5229 15.5268 10.5229 15.2228C10.5229 14.9028 10.4509 14.6308 10.3069 14.4068C10.1709 14.1828 9.97092 14.0108 9.70692 13.8908C9.45092 13.7628 9.13892 13.6988 8.77092 13.6988C8.62692 13.6988 8.47892 13.7108 8.32692 13.7348C8.17492 13.7508 8.03892 13.7788 7.91892 13.8188L8.53092 13.0268C8.69892 12.9628 8.87492 12.9108 9.05892 12.8708C9.25092 12.8228 9.43492 12.7988 9.61092 12.7988C10.0429 12.7988 10.4309 12.9028 10.7749 13.1108C11.1269 13.3188 11.4029 13.6108 11.6029 13.9868C11.8109 14.3548 11.9149 14.7908 11.9149 15.2948C11.9149 15.8388 11.7869 16.3188 11.5309 16.7348C11.2749 17.1508 10.9189 17.4748 10.4629 17.7068C10.0069 17.9388 9.47492 18.0548 8.86692 18.0548ZM7.91892 13.8188V13.0028L10.1629 10.3868L11.8189 10.3508L9.47892 13.0388L7.91892 13.8188ZM6.62292 10.7708V9.53481H11.8189V10.3508L10.6309 10.7708H6.62292ZM12.7314 14.9348L15.7194 9.53481H17.2794L14.2194 14.9348H12.7314ZM12.7314 15.7748V14.9348L13.3194 14.5388H19.2474V15.7748H12.7314ZM16.7154 17.9348V12.4388H18.0714V17.9348H16.7154Z" fill="black"/>
</svg>
