<svg width="26" height="28" viewBox="0 0 26 28" fill="none" xmlns="http://www.w3.org/2000/svg">
<rect x="0.746791" y="0.789882" width="24.2873" height="26.2898" rx="3.14612" stroke="#637083" stroke-width="0.299631"/>
<path d="M8.84238 18.0548C8.28238 18.0548 7.77438 17.9548 7.31838 17.7548C6.87038 17.5468 6.49038 17.2468 6.17838 16.8548L7.11438 15.9188C7.28238 16.1748 7.51838 16.3788 7.82238 16.5308C8.12638 16.6828 8.45838 16.7588 8.81838 16.7588C9.16238 16.7588 9.45838 16.6948 9.70638 16.5668C9.95438 16.4388 10.1464 16.2588 10.2824 16.0268C10.4264 15.7948 10.4984 15.5268 10.4984 15.2228C10.4984 14.9028 10.4264 14.6308 10.2824 14.4068C10.1464 14.1828 9.94638 14.0108 9.68238 13.8908C9.42638 13.7628 9.11438 13.6988 8.74638 13.6988C8.60238 13.6988 8.45438 13.7108 8.30238 13.7348C8.15038 13.7508 8.01438 13.7788 7.89438 13.8188L8.50638 13.0268C8.67438 12.9628 8.85038 12.9108 9.03438 12.8708C9.22638 12.8228 9.41038 12.7988 9.58638 12.7988C10.0184 12.7988 10.4064 12.9028 10.7504 13.1108C11.1024 13.3188 11.3784 13.6108 11.5784 13.9868C11.7864 14.3548 11.8904 14.7908 11.8904 15.2948C11.8904 15.8388 11.7624 16.3188 11.5064 16.7348C11.2504 17.1508 10.8944 17.4748 10.4384 17.7068C9.98238 17.9388 9.45038 18.0548 8.84238 18.0548ZM7.89438 13.8188V13.0028L10.1384 10.3868L11.7944 10.3508L9.45438 13.0388L7.89438 13.8188ZM6.59838 10.7708V9.53481H11.7944V10.3508L10.6064 10.7708H6.59838ZM15.3348 18.0548C14.7508 18.0548 14.2308 17.9548 13.7748 17.7548C13.3188 17.5468 12.9348 17.2468 12.6228 16.8548L13.5588 15.9188C13.7268 16.1748 13.9628 16.3788 14.2668 16.5308C14.5788 16.6828 14.9268 16.7588 15.3108 16.7588C15.6628 16.7588 15.9708 16.6948 16.2348 16.5668C16.4988 16.4388 16.7068 16.2548 16.8588 16.0148C17.0108 15.7748 17.0868 15.4908 17.0868 15.1628C17.0868 14.8188 17.0108 14.5348 16.8588 14.3108C16.7148 14.0788 16.5188 13.9068 16.2708 13.7948C16.0308 13.6748 15.7708 13.6148 15.4908 13.6148C15.1708 13.6148 14.8828 13.6508 14.6268 13.7228C14.3788 13.7948 14.1348 13.9228 13.8948 14.1068L13.9308 13.2428C14.0588 13.0748 14.2068 12.9388 14.3748 12.8348C14.5428 12.7228 14.7388 12.6388 14.9628 12.5828C15.1868 12.5268 15.4508 12.4988 15.7548 12.4988C16.3468 12.4988 16.8428 12.6228 17.2428 12.8708C17.6508 13.1188 17.9588 13.4508 18.1668 13.8668C18.3748 14.2748 18.4788 14.7308 18.4788 15.2348C18.4788 15.7788 18.3428 16.2628 18.0708 16.6868C17.8068 17.1108 17.4388 17.4468 16.9668 17.6948C16.4948 17.9348 15.9508 18.0548 15.3348 18.0548ZM13.8948 14.1068L13.1388 13.3508L13.5108 9.53481H14.7708L14.3388 13.5068L13.8948 14.1068ZM13.7508 10.7708L13.5108 9.53481H18.0108V10.7708H13.7508Z" fill="black"/>
</svg>
