<svg width="25" height="28" viewBox="0 0 25 28" fill="none" xmlns="http://www.w3.org/2000/svg">
<rect x="0.795986" y="0.789882" width="23.2873" height="26.2898" rx="3.14612" stroke="#637083" stroke-width="0.299631"/>
<path d="M8.89158 18.0548C8.33158 18.0548 7.82358 17.9548 7.36758 17.7548C6.91958 17.5468 6.53958 17.2468 6.22758 16.8548L7.16358 15.9188C7.33158 16.1748 7.56758 16.3788 7.87158 16.5308C8.17558 16.6828 8.50758 16.7588 8.86758 16.7588C9.21158 16.7588 9.50758 16.6948 9.75558 16.5668C10.0036 16.4388 10.1956 16.2588 10.3316 16.0268C10.4756 15.7948 10.5476 15.5268 10.5476 15.2228C10.5476 14.9028 10.4756 14.6308 10.3316 14.4068C10.1956 14.1828 9.99558 14.0108 9.73158 13.8908C9.47558 13.7628 9.16358 13.6988 8.79558 13.6988C8.65158 13.6988 8.50358 13.7108 8.35158 13.7348C8.19958 13.7508 8.06358 13.7788 7.94358 13.8188L8.55558 13.0268C8.72358 12.9628 8.89958 12.9108 9.08358 12.8708C9.27558 12.8228 9.45958 12.7988 9.63558 12.7988C10.0676 12.7988 10.4556 12.9028 10.7996 13.1108C11.1516 13.3188 11.4276 13.6108 11.6276 13.9868C11.8356 14.3548 11.9396 14.7908 11.9396 15.2948C11.9396 15.8388 11.8116 16.3188 11.5556 16.7348C11.2996 17.1508 10.9436 17.4748 10.4876 17.7068C10.0316 17.9388 9.49958 18.0548 8.89158 18.0548ZM7.94358 13.8188V13.0028L10.1876 10.3868L11.8436 10.3508L9.50358 13.0388L7.94358 13.8188ZM6.64758 10.7708V9.53481H11.8436V10.3508L10.6556 10.7708H6.64758ZM15.372 18.0548C14.812 18.0548 14.304 17.9548 13.848 17.7548C13.4 17.5468 13.02 17.2468 12.708 16.8548L13.644 15.9188C13.812 16.1748 14.048 16.3788 14.352 16.5308C14.656 16.6828 14.988 16.7588 15.348 16.7588C15.692 16.7588 15.988 16.6948 16.236 16.5668C16.484 16.4388 16.676 16.2588 16.812 16.0268C16.956 15.7948 17.028 15.5268 17.028 15.2228C17.028 14.9028 16.956 14.6308 16.812 14.4068C16.676 14.1828 16.476 14.0108 16.212 13.8908C15.956 13.7628 15.644 13.6988 15.276 13.6988C15.132 13.6988 14.984 13.7108 14.832 13.7348C14.68 13.7508 14.544 13.7788 14.424 13.8188L15.036 13.0268C15.204 12.9628 15.38 12.9108 15.564 12.8708C15.756 12.8228 15.94 12.7988 16.116 12.7988C16.548 12.7988 16.936 12.9028 17.28 13.1108C17.632 13.3188 17.908 13.6108 18.108 13.9868C18.316 14.3548 18.42 14.7908 18.42 15.2948C18.42 15.8388 18.292 16.3188 18.036 16.7348C17.78 17.1508 17.424 17.4748 16.968 17.7068C16.512 17.9388 15.98 18.0548 15.372 18.0548ZM14.424 13.8188V13.0028L16.668 10.3868L18.324 10.3508L15.984 13.0388L14.424 13.8188ZM13.128 10.7708V9.53481H18.324V10.3508L17.136 10.7708H13.128Z" fill="black"/>
</svg>
