<svg width="335" height="261" viewBox="0 0 335 261" fill="none" xmlns="http://www.w3.org/2000/svg">
<rect x="0.5" y="0.5" width="334" height="53" rx="26.5" fill="white"/>
<rect x="0.5" y="0.5" width="334" height="53" rx="26.5" stroke="#D8DADC"/>
<path d="M34.12 30.0044C33.0267 30.0044 31.9689 29.8267 30.9822 29.5067C30.8277 29.4543 30.6614 29.4465 30.5027 29.4842C30.3439 29.522 30.1989 29.6037 30.0844 29.72L28.6889 31.4711C26.1733 30.2711 23.8178 28.0044 22.5644 25.4L24.2978 23.9244C24.5378 23.6756 24.6089 23.3289 24.5111 23.0178C24.1822 22.0311 24.0133 20.9733 24.0133 19.88C24.0133 19.4 23.6133 19 23.1333 19H20.0578C19.5778 19 19 19.2133 19 19.88C19 28.1378 25.8711 35 34.12 35C34.7511 35 35 34.44 35 33.9511V30.8844C35 30.4044 34.6 30.0044 34.12 30.0044Z" fill="black"/>
<path d="M59.304 33.16C58.4933 33.16 57.7413 33.016 57.048 32.728C56.3653 32.4293 55.768 32.0187 55.256 31.496C54.744 30.9627 54.3493 30.3493 54.072 29.656C53.7947 28.952 53.656 28.2 53.656 27.4C53.656 26.6 53.7947 25.8533 54.072 25.16C54.3493 24.456 54.744 23.8427 55.256 23.32C55.768 22.7973 56.3653 22.3867 57.048 22.088C57.7413 21.7893 58.4933 21.64 59.304 21.64C60.2107 21.64 60.9947 21.7893 61.656 22.088C62.3173 22.3867 62.904 22.792 63.416 23.304L62.168 24.552C61.8373 24.1893 61.432 23.9067 60.952 23.704C60.4827 23.5013 59.9333 23.4 59.304 23.4C58.7493 23.4 58.2427 23.496 57.784 23.688C57.3253 23.88 56.9253 24.1573 56.584 24.52C56.2533 24.872 55.9973 25.2933 55.816 25.784C55.6347 26.2747 55.544 26.8133 55.544 27.4C55.544 27.9867 55.6347 28.5253 55.816 29.016C55.9973 29.5067 56.2533 29.9333 56.584 30.296C56.9253 30.648 57.3253 30.92 57.784 31.112C58.2427 31.304 58.7493 31.4 59.304 31.4C59.9867 31.4 60.5627 31.2987 61.032 31.096C61.512 30.8827 61.9173 30.5947 62.248 30.232L63.496 31.48C62.984 32.0027 62.3813 32.4133 61.688 32.712C60.9947 33.0107 60.2 33.16 59.304 33.16ZM68.1835 33.16C67.4368 33.16 66.7595 32.984 66.1515 32.632C65.5435 32.2693 65.0582 31.784 64.6955 31.176C64.3435 30.568 64.1675 29.8907 64.1675 29.144C64.1675 28.3973 64.3435 27.7253 64.6955 27.128C65.0582 26.5307 65.5435 26.056 66.1515 25.704C66.7595 25.3413 67.4368 25.16 68.1835 25.16C68.9408 25.16 69.6235 25.336 70.2315 25.688C70.8395 26.04 71.3195 26.52 71.6715 27.128C72.0342 27.7253 72.2155 28.3973 72.2155 29.144C72.2155 29.8907 72.0342 30.568 71.6715 31.176C71.3195 31.784 70.8395 32.2693 70.2315 32.632C69.6235 32.984 68.9408 33.16 68.1835 33.16ZM68.1835 31.464C68.6208 31.464 69.0048 31.368 69.3355 31.176C69.6768 30.9733 69.9382 30.696 70.1195 30.344C70.3115 29.992 70.4075 29.592 70.4075 29.144C70.4075 28.696 70.3115 28.3013 70.1195 27.96C69.9275 27.6187 69.6662 27.352 69.3355 27.16C69.0048 26.9573 68.6208 26.856 68.1835 26.856C67.7568 26.856 67.3728 26.9573 67.0315 27.16C66.7008 27.352 66.4395 27.6187 66.2475 27.96C66.0662 28.3013 65.9755 28.696 65.9755 29.144C65.9755 29.592 66.0662 29.992 66.2475 30.344C66.4395 30.696 66.7008 30.9733 67.0315 31.176C67.3728 31.368 67.7568 31.464 68.1835 31.464ZM78.9431 33V28.568C78.9431 28.056 78.7778 27.6347 78.4471 27.304C78.1271 26.9733 77.7111 26.808 77.1991 26.808C76.8578 26.808 76.5538 26.8827 76.2871 27.032C76.0205 27.1813 75.8125 27.3893 75.6631 27.656C75.5138 27.9227 75.4391 28.2267 75.4391 28.568L74.7511 28.184C74.7511 27.5973 74.8791 27.08 75.1351 26.632C75.3911 26.1733 75.7431 25.816 76.1911 25.56C76.6498 25.2933 77.1618 25.16 77.7271 25.16C78.3031 25.16 78.8151 25.3093 79.2631 25.608C79.7111 25.896 80.0631 26.2747 80.3191 26.744C80.5751 27.2027 80.7031 27.6827 80.7031 28.184V33H78.9431ZM73.6791 33V25.32H75.4391V33H73.6791ZM83.5659 33V22.12H85.3259V33H83.5659ZM81.7259 26.92V25.32H87.1659V26.92H81.7259ZM88.4608 33V25.32H90.2208V33H88.4608ZM89.3408 23.912C89.0421 23.912 88.7914 23.8107 88.5888 23.608C88.3968 23.4053 88.3008 23.1547 88.3008 22.856C88.3008 22.5573 88.3968 22.3067 88.5888 22.104C88.7914 21.9013 89.0421 21.8 89.3408 21.8C89.6501 21.8 89.9008 21.9013 90.0928 22.104C90.2848 22.3067 90.3808 22.5573 90.3808 22.856C90.3808 23.1547 90.2848 23.4053 90.0928 23.608C89.9008 23.8107 89.6501 23.912 89.3408 23.912ZM97.4588 33V28.568C97.4588 28.056 97.2934 27.6347 96.9628 27.304C96.6428 26.9733 96.2268 26.808 95.7148 26.808C95.3734 26.808 95.0694 26.8827 94.8028 27.032C94.5361 27.1813 94.3281 27.3893 94.1788 27.656C94.0294 27.9227 93.9548 28.2267 93.9548 28.568L93.2668 28.184C93.2668 27.5973 93.3948 27.08 93.6508 26.632C93.9068 26.1733 94.2588 25.816 94.7068 25.56C95.1654 25.2933 95.6774 25.16 96.2428 25.16C96.8188 25.16 97.3308 25.3093 97.7788 25.608C98.2268 25.896 98.5788 26.2747 98.8348 26.744C99.0908 27.2027 99.2188 27.6827 99.2188 28.184V33H97.4588ZM92.1948 33V25.32H93.9548V33H92.1948ZM104.159 33.16C103.509 33.16 102.927 33.016 102.415 32.728C101.914 32.44 101.519 32.0453 101.231 31.544C100.954 31.032 100.815 30.4453 100.815 29.784V25.32H102.575V29.704C102.575 30.0773 102.634 30.3973 102.751 30.664C102.879 30.92 103.061 31.1173 103.295 31.256C103.541 31.3947 103.829 31.464 104.159 31.464C104.671 31.464 105.061 31.3147 105.327 31.016C105.605 30.7067 105.743 30.2693 105.743 29.704V25.32H107.503V29.784C107.503 30.456 107.359 31.048 107.071 31.56C106.794 32.0613 106.405 32.456 105.903 32.744C105.402 33.0213 104.821 33.16 104.159 33.16ZM112.841 33.16C112.073 33.16 111.38 32.9893 110.761 32.648C110.153 32.296 109.668 31.816 109.305 31.208C108.953 30.6 108.777 29.9173 108.777 29.16C108.777 28.4027 108.953 27.7253 109.305 27.128C109.657 26.52 110.132 26.04 110.729 25.688C111.337 25.336 112.009 25.16 112.745 25.16C113.46 25.16 114.089 25.3253 114.633 25.656C115.188 25.9867 115.62 26.44 115.929 27.016C116.249 27.592 116.409 28.248 116.409 28.984C116.409 29.112 116.398 29.2453 116.377 29.384C116.366 29.512 116.345 29.656 116.313 29.816H110.009V28.376H115.401L114.745 28.952C114.724 28.4827 114.633 28.088 114.473 27.768C114.313 27.448 114.084 27.2027 113.785 27.032C113.497 26.8613 113.14 26.776 112.713 26.776C112.265 26.776 111.876 26.872 111.545 27.064C111.214 27.256 110.958 27.528 110.777 27.88C110.596 28.2213 110.505 28.632 110.505 29.112C110.505 29.592 110.601 30.0133 110.793 30.376C110.985 30.7387 111.257 31.0213 111.609 31.224C111.961 31.416 112.366 31.512 112.825 31.512C113.22 31.512 113.582 31.4427 113.913 31.304C114.254 31.1653 114.542 30.9627 114.777 30.696L115.897 31.832C115.524 32.2693 115.07 32.6 114.537 32.824C114.004 33.048 113.438 33.16 112.841 33.16ZM123.263 33L120.175 25.32H121.999L124.079 30.904L123.535 30.92L125.567 25.32H126.591L128.623 30.92L128.079 30.904L130.159 25.32H131.983L128.895 33H127.871L125.791 27.688H126.367L124.287 33H123.263ZM132.976 33V25.32H134.736V33H132.976ZM133.856 23.912C133.558 23.912 133.307 23.8107 133.104 23.608C132.912 23.4053 132.816 23.1547 132.816 22.856C132.816 22.5573 132.912 22.3067 133.104 22.104C133.307 21.9013 133.558 21.8 133.856 21.8C134.166 21.8 134.416 21.9013 134.608 22.104C134.8 22.3067 134.896 22.5573 134.896 22.856C134.896 23.1547 134.8 23.4053 134.608 23.608C134.416 23.8107 134.166 23.912 133.856 23.912ZM137.878 33V22.12H139.638V33H137.878ZM136.038 26.92V25.32H141.478V26.92H136.038ZM148.021 33V28.568C148.021 28.056 147.856 27.6347 147.525 27.304C147.205 26.9733 146.789 26.808 146.277 26.808C145.936 26.808 145.632 26.8827 145.365 27.032C145.099 27.1813 144.891 27.3893 144.741 27.656C144.592 27.9227 144.517 28.2267 144.517 28.568L143.829 28.184C143.829 27.5973 143.957 27.08 144.213 26.632C144.469 26.1733 144.821 25.816 145.269 25.56C145.728 25.2933 146.24 25.16 146.805 25.16C147.381 25.16 147.893 25.288 148.341 25.544C148.789 25.8 149.141 26.1573 149.397 26.616C149.653 27.064 149.781 27.5867 149.781 28.184V33H148.021ZM142.757 33V21.48H144.517V33H142.757ZM156.277 28.776V27.176H159.077C159.461 27.176 159.797 27.1013 160.085 26.952C160.384 26.792 160.618 26.5733 160.789 26.296C160.96 26.008 161.045 25.672 161.045 25.288C161.045 24.904 160.96 24.5733 160.789 24.296C160.618 24.008 160.384 23.7893 160.085 23.64C159.797 23.48 159.461 23.4 159.077 23.4H156.277V21.8H159.173C159.877 21.8 160.506 21.944 161.061 22.232C161.626 22.52 162.069 22.9253 162.389 23.448C162.72 23.9707 162.885 24.584 162.885 25.288C162.885 25.992 162.72 26.6053 162.389 27.128C162.069 27.6507 161.626 28.056 161.061 28.344C160.506 28.632 159.877 28.776 159.173 28.776H156.277ZM155.013 33V21.8H156.853V33H155.013ZM169.693 33V28.568C169.693 28.056 169.528 27.6347 169.197 27.304C168.877 26.9733 168.461 26.808 167.949 26.808C167.608 26.808 167.304 26.8827 167.037 27.032C166.77 27.1813 166.562 27.3893 166.413 27.656C166.264 27.9227 166.189 28.2267 166.189 28.568L165.501 28.184C165.501 27.5973 165.629 27.08 165.885 26.632C166.141 26.1733 166.493 25.816 166.941 25.56C167.4 25.2933 167.912 25.16 168.477 25.16C169.053 25.16 169.565 25.288 170.013 25.544C170.461 25.8 170.813 26.1573 171.069 26.616C171.325 27.064 171.453 27.5867 171.453 28.184V33H169.693ZM164.429 33V21.48H166.189V33H164.429ZM176.762 33.16C176.015 33.16 175.338 32.984 174.73 32.632C174.122 32.2693 173.636 31.784 173.274 31.176C172.922 30.568 172.746 29.8907 172.746 29.144C172.746 28.3973 172.922 27.7253 173.274 27.128C173.636 26.5307 174.122 26.056 174.73 25.704C175.338 25.3413 176.015 25.16 176.762 25.16C177.519 25.16 178.202 25.336 178.81 25.688C179.418 26.04 179.898 26.52 180.25 27.128C180.612 27.7253 180.794 28.3973 180.794 29.144C180.794 29.8907 180.612 30.568 180.25 31.176C179.898 31.784 179.418 32.2693 178.81 32.632C178.202 32.984 177.519 33.16 176.762 33.16ZM176.762 31.464C177.199 31.464 177.583 31.368 177.914 31.176C178.255 30.9733 178.516 30.696 178.698 30.344C178.89 29.992 178.986 29.592 178.986 29.144C178.986 28.696 178.89 28.3013 178.698 27.96C178.506 27.6187 178.244 27.352 177.914 27.16C177.583 26.9573 177.199 26.856 176.762 26.856C176.335 26.856 175.951 26.9573 175.61 27.16C175.279 27.352 175.018 27.6187 174.826 27.96C174.644 28.3013 174.554 28.696 174.554 29.144C174.554 29.592 174.644 29.992 174.826 30.344C175.018 30.696 175.279 30.9733 175.61 31.176C175.951 31.368 176.335 31.464 176.762 31.464ZM187.521 33V28.568C187.521 28.056 187.356 27.6347 187.025 27.304C186.705 26.9733 186.289 26.808 185.777 26.808C185.436 26.808 185.132 26.8827 184.865 27.032C184.599 27.1813 184.391 27.3893 184.241 27.656C184.092 27.9227 184.017 28.2267 184.017 28.568L183.329 28.184C183.329 27.5973 183.457 27.08 183.713 26.632C183.969 26.1733 184.321 25.816 184.769 25.56C185.228 25.2933 185.74 25.16 186.305 25.16C186.881 25.16 187.393 25.3093 187.841 25.608C188.289 25.896 188.641 26.2747 188.897 26.744C189.153 27.2027 189.281 27.6827 189.281 28.184V33H187.521ZM182.257 33V25.32H184.017V33H182.257ZM194.638 33.16C193.87 33.16 193.176 32.9893 192.558 32.648C191.95 32.296 191.464 31.816 191.102 31.208C190.75 30.6 190.574 29.9173 190.574 29.16C190.574 28.4027 190.75 27.7253 191.102 27.128C191.454 26.52 191.928 26.04 192.526 25.688C193.134 25.336 193.806 25.16 194.542 25.16C195.256 25.16 195.886 25.3253 196.43 25.656C196.984 25.9867 197.416 26.44 197.726 27.016C198.046 27.592 198.206 28.248 198.206 28.984C198.206 29.112 198.195 29.2453 198.174 29.384C198.163 29.512 198.142 29.656 198.11 29.816H191.806V28.376H197.198L196.542 28.952C196.52 28.4827 196.43 28.088 196.27 27.768C196.11 27.448 195.88 27.2027 195.582 27.032C195.294 26.8613 194.936 26.776 194.51 26.776C194.062 26.776 193.672 26.872 193.342 27.064C193.011 27.256 192.755 27.528 192.574 27.88C192.392 28.2213 192.302 28.632 192.302 29.112C192.302 29.592 192.398 30.0133 192.59 30.376C192.782 30.7387 193.054 31.0213 193.406 31.224C193.758 31.416 194.163 31.512 194.622 31.512C195.016 31.512 195.379 31.4427 195.71 31.304C196.051 31.1653 196.339 30.9627 196.574 30.696L197.694 31.832C197.32 32.2693 196.867 32.6 196.334 32.824C195.8 33.048 195.235 33.16 194.638 33.16ZM203.06 33V21.8H204.34L204.9 23.912V33H203.06ZM210.82 33L204.116 24.248L204.34 21.8L211.044 30.552L210.82 33ZM210.82 33L210.26 31.032V21.8H212.1V33H210.82ZM217.441 33.16C216.79 33.16 216.209 33.016 215.697 32.728C215.195 32.44 214.801 32.0453 214.513 31.544C214.235 31.032 214.097 30.4453 214.097 29.784V25.32H215.857V29.704C215.857 30.0773 215.915 30.3973 216.033 30.664C216.161 30.92 216.342 31.1173 216.577 31.256C216.822 31.3947 217.11 31.464 217.441 31.464C217.953 31.464 218.342 31.3147 218.609 31.016C218.886 30.7067 219.025 30.2693 219.025 29.704V25.32H220.785V29.784C220.785 30.456 220.641 31.048 220.353 31.56C220.075 32.0613 219.686 32.456 219.185 32.744C218.683 33.0213 218.102 33.16 217.441 33.16ZM222.554 33V25.32H224.314V33H222.554ZM227.658 33V28.424C227.658 27.912 227.498 27.5173 227.178 27.24C226.858 26.952 226.463 26.808 225.994 26.808C225.674 26.808 225.386 26.872 225.13 27C224.885 27.128 224.687 27.3147 224.538 27.56C224.389 27.7947 224.314 28.0827 224.314 28.424L223.626 28.04C223.626 27.4533 223.754 26.9467 224.01 26.52C224.266 26.0933 224.613 25.7627 225.05 25.528C225.487 25.2827 225.978 25.16 226.522 25.16C227.066 25.16 227.557 25.2773 227.994 25.512C228.431 25.7467 228.778 26.0773 229.034 26.504C229.29 26.9307 229.418 27.4427 229.418 28.04V33H227.658ZM232.762 33V28.424C232.762 27.912 232.602 27.5173 232.282 27.24C231.962 26.952 231.567 26.808 231.098 26.808C230.789 26.808 230.506 26.872 230.25 27C229.994 27.128 229.791 27.3147 229.642 27.56C229.493 27.7947 229.418 28.0827 229.418 28.424L228.426 28.04C228.479 27.4533 228.65 26.9467 228.938 26.52C229.226 26.0933 229.594 25.7627 230.042 25.528C230.501 25.2827 231.002 25.16 231.546 25.16C232.101 25.16 232.602 25.2773 233.05 25.512C233.498 25.7467 233.855 26.0773 234.122 26.504C234.389 26.9307 234.522 27.4427 234.522 28.04V33H232.762ZM240.447 33.16C239.861 33.16 239.338 33.0373 238.879 32.792C238.421 32.536 238.058 32.1893 237.791 31.752C237.535 31.3147 237.407 30.8187 237.407 30.264V28.056C237.407 27.5013 237.541 27.0053 237.807 26.568C238.074 26.1307 238.437 25.7893 238.895 25.544C239.354 25.288 239.871 25.16 240.447 25.16C241.141 25.16 241.765 25.3413 242.319 25.704C242.885 26.056 243.327 26.536 243.647 27.144C243.978 27.7413 244.143 28.4187 244.143 29.176C244.143 29.9227 243.978 30.6 243.647 31.208C243.327 31.8053 242.885 32.28 242.319 32.632C241.765 32.984 241.141 33.16 240.447 33.16ZM240.159 31.496C240.586 31.496 240.959 31.4 241.279 31.208C241.61 31.0053 241.866 30.728 242.047 30.376C242.239 30.024 242.335 29.6187 242.335 29.16C242.335 28.7013 242.239 28.296 242.047 27.944C241.866 27.592 241.61 27.32 241.279 27.128C240.959 26.9253 240.586 26.824 240.159 26.824C239.733 26.824 239.354 26.9253 239.023 27.128C238.693 27.32 238.437 27.592 238.255 27.944C238.074 28.296 237.983 28.7013 237.983 29.16C237.983 29.6187 238.074 30.024 238.255 30.376C238.437 30.728 238.693 31.0053 239.023 31.208C239.354 31.4 239.733 31.496 240.159 31.496ZM236.335 33V21.48H238.095V27.208L237.791 29.064L238.095 30.936V33H236.335ZM249.185 33.16C248.417 33.16 247.723 32.9893 247.105 32.648C246.497 32.296 246.011 31.816 245.649 31.208C245.297 30.6 245.121 29.9173 245.121 29.16C245.121 28.4027 245.297 27.7253 245.649 27.128C246.001 26.52 246.475 26.04 247.073 25.688C247.681 25.336 248.353 25.16 249.089 25.16C249.803 25.16 250.433 25.3253 250.977 25.656C251.531 25.9867 251.963 26.44 252.273 27.016C252.593 27.592 252.753 28.248 252.753 28.984C252.753 29.112 252.742 29.2453 252.721 29.384C252.71 29.512 252.689 29.656 252.657 29.816H246.353V28.376H251.745L251.089 28.952C251.067 28.4827 250.977 28.088 250.817 27.768C250.657 27.448 250.427 27.2027 250.129 27.032C249.841 26.8613 249.483 26.776 249.057 26.776C248.609 26.776 248.219 26.872 247.889 27.064C247.558 27.256 247.302 27.528 247.121 27.88C246.939 28.2213 246.849 28.632 246.849 29.112C246.849 29.592 246.945 30.0133 247.137 30.376C247.329 30.7387 247.601 31.0213 247.953 31.224C248.305 31.416 248.71 31.512 249.169 31.512C249.563 31.512 249.926 31.4427 250.257 31.304C250.598 31.1653 250.886 30.9627 251.121 30.696L252.241 31.832C251.867 32.2693 251.414 32.6 250.881 32.824C250.347 33.048 249.782 33.16 249.185 33.16ZM254.164 33V25.32H255.924V33H254.164ZM255.924 28.728L255.316 28.424C255.316 27.4533 255.529 26.6693 255.956 26.072C256.393 25.464 257.049 25.16 257.924 25.16C258.308 25.16 258.654 25.2293 258.964 25.368C259.273 25.5067 259.561 25.7307 259.828 26.04L258.676 27.224C258.537 27.0747 258.382 26.968 258.212 26.904C258.041 26.84 257.844 26.808 257.62 26.808C257.129 26.808 256.724 26.9627 256.404 27.272C256.084 27.5813 255.924 28.0667 255.924 28.728Z" fill="black"/>
<rect x="0.5" y="69.5" width="334" height="53" rx="26.5" fill="white"/>
<rect x="0.5" y="69.5" width="334" height="53" rx="26.5" stroke="#D8DADC"/>
<path d="M60.875 97.2969H62.8281C62.7656 98.0417 62.5573 98.7057 62.2031 99.2891C61.849 99.8672 61.3516 100.323 60.7109 100.656C60.0703 100.99 59.2917 101.156 58.375 101.156C57.6719 101.156 57.0391 101.031 56.4766 100.781C55.9141 100.526 55.4323 100.167 55.0312 99.7031C54.6302 99.2344 54.3229 98.6693 54.1094 98.0078C53.901 97.3464 53.7969 96.6068 53.7969 95.7891V94.8438C53.7969 94.026 53.9036 93.2865 54.1172 92.625C54.3359 91.9635 54.6484 91.3984 55.0547 90.9297C55.4609 90.4557 55.9479 90.0938 56.5156 89.8438C57.0885 89.5938 57.7318 89.4688 58.4453 89.4688C59.3516 89.4688 60.1172 89.6354 60.7422 89.9688C61.3672 90.3021 61.8516 90.763 62.1953 91.3516C62.5443 91.9401 62.7578 92.6146 62.8359 93.375H60.8828C60.8307 92.8854 60.7161 92.4661 60.5391 92.1172C60.3672 91.7682 60.112 91.5026 59.7734 91.3203C59.4349 91.1328 58.9922 91.0391 58.4453 91.0391C57.9974 91.0391 57.6068 91.1224 57.2734 91.2891C56.9401 91.4557 56.6615 91.7005 56.4375 92.0234C56.2135 92.3464 56.0443 92.7448 55.9297 93.2188C55.8203 93.6875 55.7656 94.224 55.7656 94.8281V95.7891C55.7656 96.362 55.8151 96.8828 55.9141 97.3516C56.0182 97.8151 56.1745 98.2135 56.3828 98.5469C56.5964 98.8802 56.8672 99.138 57.1953 99.3203C57.5234 99.5026 57.9167 99.5938 58.375 99.5938C58.9323 99.5938 59.3828 99.5052 59.7266 99.3281C60.0755 99.151 60.3385 98.8932 60.5156 98.5547C60.6979 98.2109 60.8177 97.7917 60.875 97.2969ZM64.0625 96.8672V96.6875C64.0625 96.0781 64.151 95.513 64.3281 94.9922C64.5052 94.4661 64.7604 94.0104 65.0938 93.625C65.4323 93.2344 65.8438 92.9323 66.3281 92.7188C66.8177 92.5 67.3698 92.3906 67.9844 92.3906C68.6042 92.3906 69.1562 92.5 69.6406 92.7188C70.1302 92.9323 70.5443 93.2344 70.8828 93.625C71.2214 94.0104 71.4792 94.4661 71.6562 94.9922C71.8333 95.513 71.9219 96.0781 71.9219 96.6875V96.8672C71.9219 97.4766 71.8333 98.0417 71.6562 98.5625C71.4792 99.0833 71.2214 99.5391 70.8828 99.9297C70.5443 100.315 70.1328 100.617 69.6484 100.836C69.1641 101.049 68.6146 101.156 68 101.156C67.3802 101.156 66.8255 101.049 66.3359 100.836C65.8516 100.617 65.4401 100.315 65.1016 99.9297C64.763 99.5391 64.5052 99.0833 64.3281 98.5625C64.151 98.0417 64.0625 97.4766 64.0625 96.8672ZM65.9453 96.6875V96.8672C65.9453 97.2474 65.9844 97.6068 66.0625 97.9453C66.1406 98.2839 66.263 98.5807 66.4297 98.8359C66.5964 99.0911 66.8099 99.2917 67.0703 99.4375C67.3307 99.5833 67.6406 99.6562 68 99.6562C68.349 99.6562 68.651 99.5833 68.9062 99.4375C69.1667 99.2917 69.3802 99.0911 69.5469 98.8359C69.7135 98.5807 69.8359 98.2839 69.9141 97.9453C69.9974 97.6068 70.0391 97.2474 70.0391 96.8672V96.6875C70.0391 96.3125 69.9974 95.9583 69.9141 95.625C69.8359 95.2865 69.7109 94.987 69.5391 94.7266C69.3724 94.4661 69.1589 94.263 68.8984 94.1172C68.6432 93.9661 68.3385 93.8906 67.9844 93.8906C67.6302 93.8906 67.3229 93.9661 67.0625 94.1172C66.8073 94.263 66.5964 94.4661 66.4297 94.7266C66.263 94.987 66.1406 95.2865 66.0625 95.625C65.9844 95.9583 65.9453 96.3125 65.9453 96.6875ZM75.3672 94.3516V101H73.4844V92.5469H75.2578L75.3672 94.3516ZM75.0312 96.4609L74.4219 96.4531C74.4271 95.8542 74.5104 95.3047 74.6719 94.8047C74.8385 94.3047 75.0677 93.875 75.3594 93.5156C75.6562 93.1562 76.0104 92.8802 76.4219 92.6875C76.8333 92.4896 77.2917 92.3906 77.7969 92.3906C78.2031 92.3906 78.5703 92.4479 78.8984 92.5625C79.2318 92.6719 79.5156 92.8516 79.75 93.1016C79.9896 93.3516 80.1719 93.6771 80.2969 94.0781C80.4219 94.474 80.4844 94.9609 80.4844 95.5391V101H78.5938V95.5312C78.5938 95.125 78.5339 94.8047 78.4141 94.5703C78.2995 94.3307 78.1302 94.1615 77.9062 94.0625C77.6875 93.9583 77.4141 93.9062 77.0859 93.9062C76.763 93.9062 76.474 93.974 76.2188 94.1094C75.9635 94.2448 75.7474 94.4297 75.5703 94.6641C75.3984 94.8984 75.2656 95.1693 75.1719 95.4766C75.0781 95.7839 75.0312 96.112 75.0312 96.4609ZM86.2812 92.5469V93.9219H81.5156V92.5469H86.2812ZM82.8906 90.4766H84.7734V98.6641C84.7734 98.9245 84.8099 99.125 84.8828 99.2656C84.9609 99.401 85.0677 99.4922 85.2031 99.5391C85.3385 99.5859 85.4974 99.6094 85.6797 99.6094C85.8099 99.6094 85.9349 99.6016 86.0547 99.5859C86.1745 99.5703 86.2708 99.5547 86.3438 99.5391L86.3516 100.977C86.1953 101.023 86.013 101.065 85.8047 101.102C85.6016 101.138 85.3672 101.156 85.1016 101.156C84.6693 101.156 84.2865 101.081 83.9531 100.93C83.6198 100.773 83.3594 100.521 83.1719 100.172C82.9844 99.8229 82.8906 99.3594 82.8906 98.7812V90.4766ZM89.75 92.5469V101H87.8594V92.5469H89.75ZM87.7344 90.3281C87.7344 90.0417 87.8281 89.8047 88.0156 89.6172C88.2083 89.4245 88.474 89.3281 88.8125 89.3281C89.1458 89.3281 89.4089 89.4245 89.6016 89.6172C89.7943 89.8047 89.8906 90.0417 89.8906 90.3281C89.8906 90.6094 89.7943 90.8438 89.6016 91.0312C89.4089 91.2188 89.1458 91.3125 88.8125 91.3125C88.474 91.3125 88.2083 91.2188 88.0156 91.0312C87.8281 90.8438 87.7344 90.6094 87.7344 90.3281ZM93.6797 94.3516V101H91.7969V92.5469H93.5703L93.6797 94.3516ZM93.3438 96.4609L92.7344 96.4531C92.7396 95.8542 92.8229 95.3047 92.9844 94.8047C93.151 94.3047 93.3802 93.875 93.6719 93.5156C93.9688 93.1562 94.3229 92.8802 94.7344 92.6875C95.1458 92.4896 95.6042 92.3906 96.1094 92.3906C96.5156 92.3906 96.8828 92.4479 97.2109 92.5625C97.5443 92.6719 97.8281 92.8516 98.0625 93.1016C98.3021 93.3516 98.4844 93.6771 98.6094 94.0781C98.7344 94.474 98.7969 94.9609 98.7969 95.5391V101H96.9062V95.5312C96.9062 95.125 96.8464 94.8047 96.7266 94.5703C96.612 94.3307 96.4427 94.1615 96.2188 94.0625C96 93.9583 95.7266 93.9062 95.3984 93.9062C95.0755 93.9062 94.7865 93.974 94.5312 94.1094C94.276 94.2448 94.0599 94.4297 93.8828 94.6641C93.7109 94.8984 93.5781 95.1693 93.4844 95.4766C93.3906 95.7839 93.3438 96.112 93.3438 96.4609ZM105.805 99.0078V92.5469H107.695V101H105.914L105.805 99.0078ZM106.07 97.25L106.703 97.2344C106.703 97.8021 106.641 98.3255 106.516 98.8047C106.391 99.2786 106.198 99.6927 105.938 100.047C105.677 100.396 105.344 100.669 104.938 100.867C104.531 101.06 104.044 101.156 103.477 101.156C103.065 101.156 102.688 101.096 102.344 100.977C102 100.857 101.703 100.672 101.453 100.422C101.208 100.172 101.018 99.8464 100.883 99.4453C100.747 99.0443 100.68 98.5651 100.68 98.0078V92.5469H102.562V98.0234C102.562 98.3307 102.599 98.5885 102.672 98.7969C102.745 99 102.844 99.1641 102.969 99.2891C103.094 99.4141 103.24 99.5026 103.406 99.5547C103.573 99.6068 103.75 99.6328 103.938 99.6328C104.474 99.6328 104.896 99.5286 105.203 99.3203C105.516 99.1068 105.737 98.8203 105.867 98.4609C106.003 98.1016 106.07 97.6979 106.07 97.25ZM113.352 101.156C112.727 101.156 112.161 101.055 111.656 100.852C111.156 100.643 110.729 100.354 110.375 99.9844C110.026 99.6146 109.758 99.1797 109.57 98.6797C109.383 98.1797 109.289 97.6406 109.289 97.0625V96.75C109.289 96.0885 109.385 95.4896 109.578 94.9531C109.771 94.4167 110.039 93.9583 110.383 93.5781C110.727 93.1927 111.133 92.8984 111.602 92.6953C112.07 92.4922 112.578 92.3906 113.125 92.3906C113.729 92.3906 114.258 92.4922 114.711 92.6953C115.164 92.8984 115.539 93.1849 115.836 93.5547C116.138 93.9193 116.362 94.3542 116.508 94.8594C116.659 95.3646 116.734 95.9219 116.734 96.5312V97.3359H110.203V95.9844H114.875V95.8359C114.865 95.4974 114.797 95.1797 114.672 94.8828C114.552 94.5859 114.367 94.3464 114.117 94.1641C113.867 93.9818 113.534 93.8906 113.117 93.8906C112.805 93.8906 112.526 93.9583 112.281 94.0938C112.042 94.224 111.841 94.4141 111.68 94.6641C111.518 94.9141 111.393 95.2161 111.305 95.5703C111.221 95.9193 111.18 96.3125 111.18 96.75V97.0625C111.18 97.4323 111.229 97.776 111.328 98.0938C111.432 98.4062 111.583 98.6797 111.781 98.9141C111.979 99.1484 112.219 99.3333 112.5 99.4688C112.781 99.599 113.102 99.6641 113.461 99.6641C113.914 99.6641 114.318 99.5729 114.672 99.3906C115.026 99.2083 115.333 98.9505 115.594 98.6172L116.586 99.5781C116.404 99.8438 116.167 100.099 115.875 100.344C115.583 100.583 115.227 100.779 114.805 100.93C114.388 101.081 113.904 101.156 113.352 101.156ZM124.484 99.125L126.438 92.5469H127.641L127.312 94.5156L125.344 101H124.266L124.484 99.125ZM123.336 92.5469L124.859 99.1562L124.984 101H123.781L121.492 92.5469H123.336ZM129.469 99.0781L130.945 92.5469H132.781L130.5 101H129.297L129.469 99.0781ZM127.844 92.5469L129.773 99.0469L130.016 101H128.938L126.945 94.5078L126.617 92.5469H127.844ZM136.078 92.5469V101H134.188V92.5469H136.078ZM134.062 90.3281C134.062 90.0417 134.156 89.8047 134.344 89.6172C134.536 89.4245 134.802 89.3281 135.141 89.3281C135.474 89.3281 135.737 89.4245 135.93 89.6172C136.122 89.8047 136.219 90.0417 136.219 90.3281C136.219 90.6094 136.122 90.8438 135.93 91.0312C135.737 91.2188 135.474 91.3125 135.141 91.3125C134.802 91.3125 134.536 91.2188 134.344 91.0312C134.156 90.8438 134.062 90.6094 134.062 90.3281ZM142.016 92.5469V93.9219H137.25V92.5469H142.016ZM138.625 90.4766H140.508V98.6641C140.508 98.9245 140.544 99.125 140.617 99.2656C140.695 99.401 140.802 99.4922 140.938 99.5391C141.073 99.5859 141.232 99.6094 141.414 99.6094C141.544 99.6094 141.669 99.6016 141.789 99.5859C141.909 99.5703 142.005 99.5547 142.078 99.5391L142.086 100.977C141.93 101.023 141.747 101.065 141.539 101.102C141.336 101.138 141.102 101.156 140.836 101.156C140.404 101.156 140.021 101.081 139.688 100.93C139.354 100.773 139.094 100.521 138.906 100.172C138.719 99.8229 138.625 99.3594 138.625 98.7812V90.4766ZM145.328 89V101H143.453V89H145.328ZM145 96.4609L144.391 96.4531C144.396 95.8698 144.477 95.3307 144.633 94.8359C144.794 94.3411 145.018 93.9115 145.305 93.5469C145.596 93.1771 145.945 92.8932 146.352 92.6953C146.758 92.4922 147.208 92.3906 147.703 92.3906C148.12 92.3906 148.495 92.4479 148.828 92.5625C149.167 92.6771 149.458 92.862 149.703 93.1172C149.948 93.3672 150.133 93.6953 150.258 94.1016C150.388 94.5026 150.453 94.9922 150.453 95.5703V101H148.562V95.5547C148.562 95.1484 148.503 94.8255 148.383 94.5859C148.268 94.3464 148.099 94.1745 147.875 94.0703C147.651 93.9609 147.378 93.9062 147.055 93.9062C146.716 93.9062 146.417 93.974 146.156 94.1094C145.901 94.2448 145.688 94.4297 145.516 94.6641C145.344 94.8984 145.214 95.1693 145.125 95.4766C145.042 95.7839 145 96.112 145 96.4609ZM165.266 95.1875V99.5312C165.104 99.7448 164.852 99.9792 164.508 100.234C164.169 100.484 163.719 100.701 163.156 100.883C162.594 101.065 161.893 101.156 161.055 101.156C160.341 101.156 159.688 101.036 159.094 100.797C158.5 100.552 157.987 100.195 157.555 99.7266C157.128 99.2578 156.797 98.6875 156.562 98.0156C156.328 97.3385 156.211 96.5677 156.211 95.7031V94.9141C156.211 94.0547 156.318 93.2891 156.531 92.6172C156.75 91.9401 157.062 91.3672 157.469 90.8984C157.875 90.4297 158.365 90.0755 158.938 89.8359C159.516 89.5911 160.169 89.4688 160.898 89.4688C161.831 89.4688 162.602 89.625 163.211 89.9375C163.826 90.2448 164.299 90.6719 164.633 91.2188C164.966 91.7656 165.177 92.3906 165.266 93.0938H163.344C163.281 92.6979 163.159 92.3438 162.977 92.0312C162.799 91.7188 162.544 91.474 162.211 91.2969C161.883 91.1146 161.456 91.0234 160.93 91.0234C160.477 91.0234 160.078 91.1094 159.734 91.2812C159.391 91.4531 159.104 91.7057 158.875 92.0391C158.651 92.3724 158.482 92.7786 158.367 93.2578C158.253 93.737 158.195 94.2839 158.195 94.8984V95.7031C158.195 96.3281 158.26 96.8828 158.391 97.3672C158.526 97.8516 158.719 98.2604 158.969 98.5938C159.224 98.9271 159.534 99.1797 159.898 99.3516C160.263 99.5182 160.674 99.6016 161.133 99.6016C161.581 99.6016 161.948 99.5651 162.234 99.4922C162.521 99.4141 162.747 99.3229 162.914 99.2188C163.086 99.1094 163.219 99.0052 163.312 98.9062V96.6484H160.945V95.1875H165.266ZM166.891 96.8672V96.6875C166.891 96.0781 166.979 95.513 167.156 94.9922C167.333 94.4661 167.589 94.0104 167.922 93.625C168.26 93.2344 168.672 92.9323 169.156 92.7188C169.646 92.5 170.198 92.3906 170.812 92.3906C171.432 92.3906 171.984 92.5 172.469 92.7188C172.958 92.9323 173.372 93.2344 173.711 93.625C174.049 94.0104 174.307 94.4661 174.484 94.9922C174.661 95.513 174.75 96.0781 174.75 96.6875V96.8672C174.75 97.4766 174.661 98.0417 174.484 98.5625C174.307 99.0833 174.049 99.5391 173.711 99.9297C173.372 100.315 172.961 100.617 172.477 100.836C171.992 101.049 171.443 101.156 170.828 101.156C170.208 101.156 169.654 101.049 169.164 100.836C168.68 100.617 168.268 100.315 167.93 99.9297C167.591 99.5391 167.333 99.0833 167.156 98.5625C166.979 98.0417 166.891 97.4766 166.891 96.8672ZM168.773 96.6875V96.8672C168.773 97.2474 168.812 97.6068 168.891 97.9453C168.969 98.2839 169.091 98.5807 169.258 98.8359C169.424 99.0911 169.638 99.2917 169.898 99.4375C170.159 99.5833 170.469 99.6562 170.828 99.6562C171.177 99.6562 171.479 99.5833 171.734 99.4375C171.995 99.2917 172.208 99.0911 172.375 98.8359C172.542 98.5807 172.664 98.2839 172.742 97.9453C172.826 97.6068 172.867 97.2474 172.867 96.8672V96.6875C172.867 96.3125 172.826 95.9583 172.742 95.625C172.664 95.2865 172.539 94.987 172.367 94.7266C172.201 94.4661 171.987 94.263 171.727 94.1172C171.471 93.9661 171.167 93.8906 170.812 93.8906C170.458 93.8906 170.151 93.9661 169.891 94.1172C169.635 94.263 169.424 94.4661 169.258 94.7266C169.091 94.987 168.969 95.2865 168.891 95.625C168.812 95.9583 168.773 96.3125 168.773 96.6875ZM175.969 96.8672V96.6875C175.969 96.0781 176.057 95.513 176.234 94.9922C176.411 94.4661 176.667 94.0104 177 93.625C177.339 93.2344 177.75 92.9323 178.234 92.7188C178.724 92.5 179.276 92.3906 179.891 92.3906C180.51 92.3906 181.062 92.5 181.547 92.7188C182.036 92.9323 182.451 93.2344 182.789 93.625C183.128 94.0104 183.385 94.4661 183.562 94.9922C183.74 95.513 183.828 96.0781 183.828 96.6875V96.8672C183.828 97.4766 183.74 98.0417 183.562 98.5625C183.385 99.0833 183.128 99.5391 182.789 99.9297C182.451 100.315 182.039 100.617 181.555 100.836C181.07 101.049 180.521 101.156 179.906 101.156C179.286 101.156 178.732 101.049 178.242 100.836C177.758 100.617 177.346 100.315 177.008 99.9297C176.669 99.5391 176.411 99.0833 176.234 98.5625C176.057 98.0417 175.969 97.4766 175.969 96.8672ZM177.852 96.6875V96.8672C177.852 97.2474 177.891 97.6068 177.969 97.9453C178.047 98.2839 178.169 98.5807 178.336 98.8359C178.503 99.0911 178.716 99.2917 178.977 99.4375C179.237 99.5833 179.547 99.6562 179.906 99.6562C180.255 99.6562 180.557 99.5833 180.812 99.4375C181.073 99.2917 181.286 99.0911 181.453 98.8359C181.62 98.5807 181.742 98.2839 181.82 97.9453C181.904 97.6068 181.945 97.2474 181.945 96.8672V96.6875C181.945 96.3125 181.904 95.9583 181.82 95.625C181.742 95.2865 181.617 94.987 181.445 94.7266C181.279 94.4661 181.065 94.263 180.805 94.1172C180.549 93.9661 180.245 93.8906 179.891 93.8906C179.536 93.8906 179.229 93.9661 178.969 94.1172C178.714 94.263 178.503 94.4661 178.336 94.7266C178.169 94.987 178.047 95.2865 177.969 95.625C177.891 95.9583 177.852 96.3125 177.852 96.6875ZM190.82 92.5469H192.531V100.766C192.531 101.526 192.37 102.172 192.047 102.703C191.724 103.234 191.273 103.638 190.695 103.914C190.117 104.195 189.448 104.336 188.688 104.336C188.365 104.336 188.005 104.289 187.609 104.195C187.219 104.102 186.839 103.951 186.469 103.742C186.104 103.539 185.799 103.271 185.555 102.938L186.438 101.828C186.74 102.188 187.073 102.451 187.438 102.617C187.802 102.784 188.185 102.867 188.586 102.867C189.018 102.867 189.385 102.786 189.688 102.625C189.995 102.469 190.232 102.237 190.398 101.93C190.565 101.622 190.648 101.247 190.648 100.805V94.4609L190.82 92.5469ZM185.078 96.8672V96.7031C185.078 96.0625 185.156 95.4792 185.312 94.9531C185.469 94.4219 185.693 93.9661 185.984 93.5859C186.276 93.2005 186.63 92.9062 187.047 92.7031C187.464 92.4948 187.935 92.3906 188.461 92.3906C189.008 92.3906 189.474 92.4896 189.859 92.6875C190.25 92.8854 190.576 93.1693 190.836 93.5391C191.096 93.9036 191.299 94.3411 191.445 94.8516C191.596 95.3568 191.708 95.9193 191.781 96.5391V97.0625C191.714 97.6667 191.599 98.2188 191.438 98.7188C191.276 99.2188 191.062 99.651 190.797 100.016C190.531 100.38 190.203 100.661 189.812 100.859C189.427 101.057 188.971 101.156 188.445 101.156C187.93 101.156 187.464 101.049 187.047 100.836C186.635 100.622 186.281 100.323 185.984 99.9375C185.693 99.5521 185.469 99.099 185.312 98.5781C185.156 98.0521 185.078 97.4818 185.078 96.8672ZM186.961 96.7031V96.8672C186.961 97.2526 186.997 97.612 187.07 97.9453C187.148 98.2786 187.266 98.5729 187.422 98.8281C187.583 99.0781 187.786 99.276 188.031 99.4219C188.281 99.5625 188.576 99.6328 188.914 99.6328C189.357 99.6328 189.719 99.5391 190 99.3516C190.286 99.1641 190.505 98.9115 190.656 98.5938C190.812 98.2708 190.922 97.9115 190.984 97.5156V96.1016C190.953 95.7943 190.888 95.5078 190.789 95.2422C190.695 94.9766 190.568 94.7448 190.406 94.5469C190.245 94.3438 190.042 94.1875 189.797 94.0781C189.552 93.9635 189.263 93.9062 188.93 93.9062C188.591 93.9062 188.297 93.9792 188.047 94.125C187.797 94.2708 187.591 94.4714 187.43 94.7266C187.273 94.9818 187.156 95.2786 187.078 95.6172C187 95.9557 186.961 96.3177 186.961 96.7031ZM196.5 89V101H194.609V89H196.5ZM202.289 101.156C201.664 101.156 201.099 101.055 200.594 100.852C200.094 100.643 199.667 100.354 199.312 99.9844C198.964 99.6146 198.695 99.1797 198.508 98.6797C198.32 98.1797 198.227 97.6406 198.227 97.0625V96.75C198.227 96.0885 198.323 95.4896 198.516 94.9531C198.708 94.4167 198.977 93.9583 199.32 93.5781C199.664 93.1927 200.07 92.8984 200.539 92.6953C201.008 92.4922 201.516 92.3906 202.062 92.3906C202.667 92.3906 203.195 92.4922 203.648 92.6953C204.102 92.8984 204.477 93.1849 204.773 93.5547C205.076 93.9193 205.299 94.3542 205.445 94.8594C205.596 95.3646 205.672 95.9219 205.672 96.5312V97.3359H199.141V95.9844H203.812V95.8359C203.802 95.4974 203.734 95.1797 203.609 94.8828C203.49 94.5859 203.305 94.3464 203.055 94.1641C202.805 93.9818 202.471 93.8906 202.055 93.8906C201.742 93.8906 201.464 93.9583 201.219 94.0938C200.979 94.224 200.779 94.4141 200.617 94.6641C200.456 94.9141 200.331 95.2161 200.242 95.5703C200.159 95.9193 200.117 96.3125 200.117 96.75V97.0625C200.117 97.4323 200.167 97.776 200.266 98.0938C200.37 98.4062 200.521 98.6797 200.719 98.9141C200.917 99.1484 201.156 99.3333 201.438 99.4688C201.719 99.599 202.039 99.6641 202.398 99.6641C202.852 99.6641 203.255 99.5729 203.609 99.3906C203.964 99.2083 204.271 98.9505 204.531 98.6172L205.523 99.5781C205.341 99.8438 205.104 100.099 204.812 100.344C204.521 100.583 204.164 100.779 203.742 100.93C203.326 101.081 202.841 101.156 202.289 101.156Z" fill="black"/>
<g clip-path="url(#clip0_3_419)">
<path d="M38.1739 95.7105C38.1739 94.9316 38.112 94.3632 37.9782 93.7738H29.2724V97.2892H34.3825C34.2795 98.1629 33.7232 99.4786 32.4868 100.363L32.4695 100.48L35.2221 102.659L35.4128 102.678C37.1642 101.026 38.1739 98.5944 38.1739 95.7105Z" fill="#4285F4"/>
<path d="M29.2724 104.973C31.7759 104.973 33.8776 104.131 35.4128 102.678L32.4868 100.363C31.7038 100.921 30.6529 101.31 29.2724 101.31C26.8204 101.31 24.7392 99.6575 23.9974 97.3735L23.8886 97.383L21.0264 99.6459L20.989 99.7522C22.5138 102.847 25.6458 104.973 29.2724 104.973Z" fill="#34A853"/>
<path d="M23.9974 97.3736C23.8017 96.7842 23.6884 96.1526 23.6884 95.5C23.6884 94.8474 23.8017 94.2159 23.9871 93.6265L23.9819 93.501L21.0839 91.2017L20.989 91.2477C20.3606 92.5319 20 93.9739 20 95.5C20 97.0262 20.3606 98.4682 20.989 99.7523L23.9974 97.3736Z" fill="#FBBC05"/>
<path d="M29.2724 89.6899C31.0135 89.6899 32.188 90.4583 32.8577 91.1004L35.4746 88.49C33.8674 86.9639 31.7759 86.0271 29.2724 86.0271C25.6458 86.0271 22.5138 88.1532 20.989 91.2477L23.9871 93.6264C24.7392 91.3424 26.8204 89.6899 29.2724 89.6899Z" fill="#EB4335"/>
</g>
<rect x="0.5" y="138.5" width="334" height="53" rx="26.5" fill="white"/>
<rect x="0.5" y="138.5" width="334" height="53" rx="26.5" stroke="#D8DADC"/>
<path d="M59.304 171.16C58.4933 171.16 57.7413 171.016 57.048 170.728C56.3653 170.429 55.768 170.019 55.256 169.496C54.744 168.963 54.3493 168.349 54.072 167.656C53.7947 166.952 53.656 166.2 53.656 165.4C53.656 164.6 53.7947 163.853 54.072 163.16C54.3493 162.456 54.744 161.843 55.256 161.32C55.768 160.797 56.3653 160.387 57.048 160.088C57.7413 159.789 58.4933 159.64 59.304 159.64C60.2107 159.64 60.9947 159.789 61.656 160.088C62.3173 160.387 62.904 160.792 63.416 161.304L62.168 162.552C61.8373 162.189 61.432 161.907 60.952 161.704C60.4827 161.501 59.9333 161.4 59.304 161.4C58.7493 161.4 58.2427 161.496 57.784 161.688C57.3253 161.88 56.9253 162.157 56.584 162.52C56.2533 162.872 55.9973 163.293 55.816 163.784C55.6347 164.275 55.544 164.813 55.544 165.4C55.544 165.987 55.6347 166.525 55.816 167.016C55.9973 167.507 56.2533 167.933 56.584 168.296C56.9253 168.648 57.3253 168.92 57.784 169.112C58.2427 169.304 58.7493 169.4 59.304 169.4C59.9867 169.4 60.5627 169.299 61.032 169.096C61.512 168.883 61.9173 168.595 62.248 168.232L63.496 169.48C62.984 170.003 62.3813 170.413 61.688 170.712C60.9947 171.011 60.2 171.16 59.304 171.16ZM68.1835 171.16C67.4368 171.16 66.7595 170.984 66.1515 170.632C65.5435 170.269 65.0582 169.784 64.6955 169.176C64.3435 168.568 64.1675 167.891 64.1675 167.144C64.1675 166.397 64.3435 165.725 64.6955 165.128C65.0582 164.531 65.5435 164.056 66.1515 163.704C66.7595 163.341 67.4368 163.16 68.1835 163.16C68.9408 163.16 69.6235 163.336 70.2315 163.688C70.8395 164.04 71.3195 164.52 71.6715 165.128C72.0342 165.725 72.2155 166.397 72.2155 167.144C72.2155 167.891 72.0342 168.568 71.6715 169.176C71.3195 169.784 70.8395 170.269 70.2315 170.632C69.6235 170.984 68.9408 171.16 68.1835 171.16ZM68.1835 169.464C68.6208 169.464 69.0048 169.368 69.3355 169.176C69.6768 168.973 69.9382 168.696 70.1195 168.344C70.3115 167.992 70.4075 167.592 70.4075 167.144C70.4075 166.696 70.3115 166.301 70.1195 165.96C69.9275 165.619 69.6662 165.352 69.3355 165.16C69.0048 164.957 68.6208 164.856 68.1835 164.856C67.7568 164.856 67.3728 164.957 67.0315 165.16C66.7008 165.352 66.4395 165.619 66.2475 165.96C66.0662 166.301 65.9755 166.696 65.9755 167.144C65.9755 167.592 66.0662 167.992 66.2475 168.344C66.4395 168.696 66.7008 168.973 67.0315 169.176C67.3728 169.368 67.7568 169.464 68.1835 169.464ZM78.9431 171V166.568C78.9431 166.056 78.7778 165.635 78.4471 165.304C78.1271 164.973 77.7111 164.808 77.1991 164.808C76.8578 164.808 76.5538 164.883 76.2871 165.032C76.0205 165.181 75.8125 165.389 75.6631 165.656C75.5138 165.923 75.4391 166.227 75.4391 166.568L74.7511 166.184C74.7511 165.597 74.8791 165.08 75.1351 164.632C75.3911 164.173 75.7431 163.816 76.1911 163.56C76.6498 163.293 77.1618 163.16 77.7271 163.16C78.3031 163.16 78.8151 163.309 79.2631 163.608C79.7111 163.896 80.0631 164.275 80.3191 164.744C80.5751 165.203 80.7031 165.683 80.7031 166.184V171H78.9431ZM73.6791 171V163.32H75.4391V171H73.6791ZM83.5659 171V160.12H85.3259V171H83.5659ZM81.7259 164.92V163.32H87.1659V164.92H81.7259ZM88.4608 171V163.32H90.2208V171H88.4608ZM89.3408 161.912C89.0421 161.912 88.7914 161.811 88.5888 161.608C88.3968 161.405 88.3008 161.155 88.3008 160.856C88.3008 160.557 88.3968 160.307 88.5888 160.104C88.7914 159.901 89.0421 159.8 89.3408 159.8C89.6501 159.8 89.9008 159.901 90.0928 160.104C90.2848 160.307 90.3808 160.557 90.3808 160.856C90.3808 161.155 90.2848 161.405 90.0928 161.608C89.9008 161.811 89.6501 161.912 89.3408 161.912ZM97.4588 171V166.568C97.4588 166.056 97.2934 165.635 96.9628 165.304C96.6428 164.973 96.2268 164.808 95.7148 164.808C95.3734 164.808 95.0694 164.883 94.8028 165.032C94.5361 165.181 94.3281 165.389 94.1788 165.656C94.0294 165.923 93.9548 166.227 93.9548 166.568L93.2668 166.184C93.2668 165.597 93.3948 165.08 93.6508 164.632C93.9068 164.173 94.2588 163.816 94.7068 163.56C95.1654 163.293 95.6774 163.16 96.2428 163.16C96.8188 163.16 97.3308 163.309 97.7788 163.608C98.2268 163.896 98.5788 164.275 98.8348 164.744C99.0908 165.203 99.2188 165.683 99.2188 166.184V171H97.4588ZM92.1948 171V163.32H93.9548V171H92.1948ZM104.159 171.16C103.509 171.16 102.927 171.016 102.415 170.728C101.914 170.44 101.519 170.045 101.231 169.544C100.954 169.032 100.815 168.445 100.815 167.784V163.32H102.575V167.704C102.575 168.077 102.634 168.397 102.751 168.664C102.879 168.92 103.061 169.117 103.295 169.256C103.541 169.395 103.829 169.464 104.159 169.464C104.671 169.464 105.061 169.315 105.327 169.016C105.605 168.707 105.743 168.269 105.743 167.704V163.32H107.503V167.784C107.503 168.456 107.359 169.048 107.071 169.56C106.794 170.061 106.405 170.456 105.903 170.744C105.402 171.021 104.821 171.16 104.159 171.16ZM112.841 171.16C112.073 171.16 111.38 170.989 110.761 170.648C110.153 170.296 109.668 169.816 109.305 169.208C108.953 168.6 108.777 167.917 108.777 167.16C108.777 166.403 108.953 165.725 109.305 165.128C109.657 164.52 110.132 164.04 110.729 163.688C111.337 163.336 112.009 163.16 112.745 163.16C113.46 163.16 114.089 163.325 114.633 163.656C115.188 163.987 115.62 164.44 115.929 165.016C116.249 165.592 116.409 166.248 116.409 166.984C116.409 167.112 116.398 167.245 116.377 167.384C116.366 167.512 116.345 167.656 116.313 167.816H110.009V166.376H115.401L114.745 166.952C114.724 166.483 114.633 166.088 114.473 165.768C114.313 165.448 114.084 165.203 113.785 165.032C113.497 164.861 113.14 164.776 112.713 164.776C112.265 164.776 111.876 164.872 111.545 165.064C111.214 165.256 110.958 165.528 110.777 165.88C110.596 166.221 110.505 166.632 110.505 167.112C110.505 167.592 110.601 168.013 110.793 168.376C110.985 168.739 111.257 169.021 111.609 169.224C111.961 169.416 112.366 169.512 112.825 169.512C113.22 169.512 113.582 169.443 113.913 169.304C114.254 169.165 114.542 168.963 114.777 168.696L115.897 169.832C115.524 170.269 115.07 170.6 114.537 170.824C114.004 171.048 113.438 171.16 112.841 171.16ZM123.263 171L120.175 163.32H121.999L124.079 168.904L123.535 168.92L125.567 163.32H126.591L128.623 168.92L128.079 168.904L130.159 163.32H131.983L128.895 171H127.871L125.791 165.688H126.367L124.287 171H123.263ZM132.976 171V163.32H134.736V171H132.976ZM133.856 161.912C133.558 161.912 133.307 161.811 133.104 161.608C132.912 161.405 132.816 161.155 132.816 160.856C132.816 160.557 132.912 160.307 133.104 160.104C133.307 159.901 133.558 159.8 133.856 159.8C134.166 159.8 134.416 159.901 134.608 160.104C134.8 160.307 134.896 160.557 134.896 160.856C134.896 161.155 134.8 161.405 134.608 161.608C134.416 161.811 134.166 161.912 133.856 161.912ZM137.878 171V160.12H139.638V171H137.878ZM136.038 164.92V163.32H141.478V164.92H136.038ZM148.021 171V166.568C148.021 166.056 147.856 165.635 147.525 165.304C147.205 164.973 146.789 164.808 146.277 164.808C145.936 164.808 145.632 164.883 145.365 165.032C145.099 165.181 144.891 165.389 144.741 165.656C144.592 165.923 144.517 166.227 144.517 166.568L143.829 166.184C143.829 165.597 143.957 165.08 144.213 164.632C144.469 164.173 144.821 163.816 145.269 163.56C145.728 163.293 146.24 163.16 146.805 163.16C147.381 163.16 147.893 163.288 148.341 163.544C148.789 163.8 149.141 164.157 149.397 164.616C149.653 165.064 149.781 165.587 149.781 166.184V171H148.021ZM142.757 171V159.48H144.517V171H142.757ZM153.728 171L158.336 159.8H159.616L164.192 171H162.208L158.624 161.928H159.296L155.68 171H153.728ZM156 168.84V167.24H161.936V168.84H156ZM169.666 171.16C169.079 171.16 168.557 171.037 168.098 170.792C167.639 170.536 167.277 170.189 167.01 169.752C166.754 169.315 166.626 168.819 166.626 168.264V166.056C166.626 165.501 166.759 165.005 167.026 164.568C167.293 164.131 167.655 163.789 168.114 163.544C168.573 163.288 169.09 163.16 169.666 163.16C170.359 163.16 170.983 163.341 171.538 163.704C172.103 164.056 172.546 164.536 172.866 165.144C173.197 165.741 173.362 166.419 173.362 167.176C173.362 167.923 173.197 168.6 172.866 169.208C172.546 169.805 172.103 170.28 171.538 170.632C170.983 170.984 170.359 171.16 169.666 171.16ZM169.378 169.496C169.805 169.496 170.178 169.4 170.498 169.208C170.829 169.005 171.085 168.728 171.266 168.376C171.458 168.024 171.554 167.619 171.554 167.16C171.554 166.701 171.458 166.296 171.266 165.944C171.085 165.592 170.829 165.32 170.498 165.128C170.178 164.925 169.805 164.824 169.378 164.824C168.951 164.824 168.573 164.925 168.242 165.128C167.911 165.32 167.655 165.592 167.474 165.944C167.293 166.296 167.202 166.701 167.202 167.16C167.202 167.619 167.293 168.024 167.474 168.376C167.655 168.728 167.911 169.005 168.242 169.208C168.573 169.4 168.951 169.496 169.378 169.496ZM165.554 174.2V163.32H167.314V165.384L167.01 167.256L167.314 169.112V174.2H165.554ZM178.947 171.16C178.361 171.16 177.838 171.037 177.379 170.792C176.921 170.536 176.558 170.189 176.291 169.752C176.035 169.315 175.907 168.819 175.907 168.264V166.056C175.907 165.501 176.041 165.005 176.307 164.568C176.574 164.131 176.937 163.789 177.395 163.544C177.854 163.288 178.371 163.16 178.947 163.16C179.641 163.16 180.265 163.341 180.819 163.704C181.385 164.056 181.827 164.536 182.147 165.144C182.478 165.741 182.643 166.419 182.643 167.176C182.643 167.923 182.478 168.6 182.147 169.208C181.827 169.805 181.385 170.28 180.819 170.632C180.265 170.984 179.641 171.16 178.947 171.16ZM178.659 169.496C179.086 169.496 179.459 169.4 179.779 169.208C180.11 169.005 180.366 168.728 180.547 168.376C180.739 168.024 180.835 167.619 180.835 167.16C180.835 166.701 180.739 166.296 180.547 165.944C180.366 165.592 180.11 165.32 179.779 165.128C179.459 164.925 179.086 164.824 178.659 164.824C178.233 164.824 177.854 164.925 177.523 165.128C177.193 165.32 176.937 165.592 176.755 165.944C176.574 166.296 176.483 166.701 176.483 167.16C176.483 167.619 176.574 168.024 176.755 168.376C176.937 168.728 177.193 169.005 177.523 169.208C177.854 169.4 178.233 169.496 178.659 169.496ZM174.835 174.2V163.32H176.595V165.384L176.291 167.256L176.595 169.112V174.2H174.835ZM184.117 171V159.48H185.877V171H184.117ZM191.403 171.16C190.635 171.16 189.942 170.989 189.323 170.648C188.715 170.296 188.23 169.816 187.867 169.208C187.515 168.6 187.339 167.917 187.339 167.16C187.339 166.403 187.515 165.725 187.867 165.128C188.219 164.52 188.694 164.04 189.291 163.688C189.899 163.336 190.571 163.16 191.307 163.16C192.022 163.16 192.651 163.325 193.195 163.656C193.75 163.987 194.182 164.44 194.491 165.016C194.811 165.592 194.971 166.248 194.971 166.984C194.971 167.112 194.961 167.245 194.939 167.384C194.929 167.512 194.907 167.656 194.875 167.816H188.571V166.376H193.963L193.307 166.952C193.286 166.483 193.195 166.088 193.035 165.768C192.875 165.448 192.646 165.203 192.347 165.032C192.059 164.861 191.702 164.776 191.275 164.776C190.827 164.776 190.438 164.872 190.107 165.064C189.777 165.256 189.521 165.528 189.339 165.88C189.158 166.221 189.067 166.632 189.067 167.112C189.067 167.592 189.163 168.013 189.355 168.376C189.547 168.739 189.819 169.021 190.171 169.224C190.523 169.416 190.929 169.512 191.387 169.512C191.782 169.512 192.145 169.443 192.475 169.304C192.817 169.165 193.105 168.963 193.339 168.696L194.459 169.832C194.086 170.269 193.633 170.6 193.099 170.824C192.566 171.048 192.001 171.16 191.403 171.16Z" fill="black"/>
<path d="M34.8169 165.534C34.8081 163.901 35.537 162.668 37.0122 161.76C36.1868 160.563 34.9399 159.904 33.2934 159.775C31.7348 159.651 30.0313 160.696 29.4078 160.696C28.7492 160.696 27.2389 159.82 26.0535 159.82C23.6036 159.86 21 161.8 21 165.748C21 166.914 21.2107 168.118 21.6322 169.361C22.1942 170.995 24.2226 175 26.3389 174.933C27.4453 174.907 28.2268 174.137 29.6669 174.137C31.063 174.137 31.7875 174.933 33.0212 174.933C35.155 174.902 36.9902 171.262 37.5259 169.624C34.6633 168.258 34.8169 165.619 34.8169 165.534ZM32.3319 158.227C33.5305 156.785 33.4207 155.472 33.3856 155C32.3275 155.062 31.1026 155.73 30.4045 156.553C29.6361 157.434 29.1839 158.525 29.2805 159.753C30.4264 159.842 31.4714 159.246 32.3319 158.227Z" fill="black"/>
<rect x="0.5" y="207.5" width="334" height="53" rx="26.5" fill="white"/>
<rect x="0.5" y="207.5" width="334" height="53" rx="26.5" stroke="#D8DADC"/>
<path d="M59.304 240.16C58.4933 240.16 57.7413 240.016 57.048 239.728C56.3653 239.429 55.768 239.019 55.256 238.496C54.744 237.963 54.3493 237.349 54.072 236.656C53.7947 235.952 53.656 235.2 53.656 234.4C53.656 233.6 53.7947 232.853 54.072 232.16C54.3493 231.456 54.744 230.843 55.256 230.32C55.768 229.797 56.3653 229.387 57.048 229.088C57.7413 228.789 58.4933 228.64 59.304 228.64C60.2107 228.64 60.9947 228.789 61.656 229.088C62.3173 229.387 62.904 229.792 63.416 230.304L62.168 231.552C61.8373 231.189 61.432 230.907 60.952 230.704C60.4827 230.501 59.9333 230.4 59.304 230.4C58.7493 230.4 58.2427 230.496 57.784 230.688C57.3253 230.88 56.9253 231.157 56.584 231.52C56.2533 231.872 55.9973 232.293 55.816 232.784C55.6347 233.275 55.544 233.813 55.544 234.4C55.544 234.987 55.6347 235.525 55.816 236.016C55.9973 236.507 56.2533 236.933 56.584 237.296C56.9253 237.648 57.3253 237.92 57.784 238.112C58.2427 238.304 58.7493 238.4 59.304 238.4C59.9867 238.4 60.5627 238.299 61.032 238.096C61.512 237.883 61.9173 237.595 62.248 237.232L63.496 238.48C62.984 239.003 62.3813 239.413 61.688 239.712C60.9947 240.011 60.2 240.16 59.304 240.16ZM68.1835 240.16C67.4368 240.16 66.7595 239.984 66.1515 239.632C65.5435 239.269 65.0582 238.784 64.6955 238.176C64.3435 237.568 64.1675 236.891 64.1675 236.144C64.1675 235.397 64.3435 234.725 64.6955 234.128C65.0582 233.531 65.5435 233.056 66.1515 232.704C66.7595 232.341 67.4368 232.16 68.1835 232.16C68.9408 232.16 69.6235 232.336 70.2315 232.688C70.8395 233.04 71.3195 233.52 71.6715 234.128C72.0342 234.725 72.2155 235.397 72.2155 236.144C72.2155 236.891 72.0342 237.568 71.6715 238.176C71.3195 238.784 70.8395 239.269 70.2315 239.632C69.6235 239.984 68.9408 240.16 68.1835 240.16ZM68.1835 238.464C68.6208 238.464 69.0048 238.368 69.3355 238.176C69.6768 237.973 69.9382 237.696 70.1195 237.344C70.3115 236.992 70.4075 236.592 70.4075 236.144C70.4075 235.696 70.3115 235.301 70.1195 234.96C69.9275 234.619 69.6662 234.352 69.3355 234.16C69.0048 233.957 68.6208 233.856 68.1835 233.856C67.7568 233.856 67.3728 233.957 67.0315 234.16C66.7008 234.352 66.4395 234.619 66.2475 234.96C66.0662 235.301 65.9755 235.696 65.9755 236.144C65.9755 236.592 66.0662 236.992 66.2475 237.344C66.4395 237.696 66.7008 237.973 67.0315 238.176C67.3728 238.368 67.7568 238.464 68.1835 238.464ZM78.9431 240V235.568C78.9431 235.056 78.7778 234.635 78.4471 234.304C78.1271 233.973 77.7111 233.808 77.1991 233.808C76.8578 233.808 76.5538 233.883 76.2871 234.032C76.0205 234.181 75.8125 234.389 75.6631 234.656C75.5138 234.923 75.4391 235.227 75.4391 235.568L74.7511 235.184C74.7511 234.597 74.8791 234.08 75.1351 233.632C75.3911 233.173 75.7431 232.816 76.1911 232.56C76.6498 232.293 77.1618 232.16 77.7271 232.16C78.3031 232.16 78.8151 232.309 79.2631 232.608C79.7111 232.896 80.0631 233.275 80.3191 233.744C80.5751 234.203 80.7031 234.683 80.7031 235.184V240H78.9431ZM73.6791 240V232.32H75.4391V240H73.6791ZM83.5659 240V229.12H85.3259V240H83.5659ZM81.7259 233.92V232.32H87.1659V233.92H81.7259ZM88.4608 240V232.32H90.2208V240H88.4608ZM89.3408 230.912C89.0421 230.912 88.7914 230.811 88.5888 230.608C88.3968 230.405 88.3008 230.155 88.3008 229.856C88.3008 229.557 88.3968 229.307 88.5888 229.104C88.7914 228.901 89.0421 228.8 89.3408 228.8C89.6501 228.8 89.9008 228.901 90.0928 229.104C90.2848 229.307 90.3808 229.557 90.3808 229.856C90.3808 230.155 90.2848 230.405 90.0928 230.608C89.9008 230.811 89.6501 230.912 89.3408 230.912ZM97.4588 240V235.568C97.4588 235.056 97.2934 234.635 96.9628 234.304C96.6428 233.973 96.2268 233.808 95.7148 233.808C95.3734 233.808 95.0694 233.883 94.8028 234.032C94.5361 234.181 94.3281 234.389 94.1788 234.656C94.0294 234.923 93.9548 235.227 93.9548 235.568L93.2668 235.184C93.2668 234.597 93.3948 234.08 93.6508 233.632C93.9068 233.173 94.2588 232.816 94.7068 232.56C95.1654 232.293 95.6774 232.16 96.2428 232.16C96.8188 232.16 97.3308 232.309 97.7788 232.608C98.2268 232.896 98.5788 233.275 98.8348 233.744C99.0908 234.203 99.2188 234.683 99.2188 235.184V240H97.4588ZM92.1948 240V232.32H93.9548V240H92.1948ZM104.159 240.16C103.509 240.16 102.927 240.016 102.415 239.728C101.914 239.44 101.519 239.045 101.231 238.544C100.954 238.032 100.815 237.445 100.815 236.784V232.32H102.575V236.704C102.575 237.077 102.634 237.397 102.751 237.664C102.879 237.92 103.061 238.117 103.295 238.256C103.541 238.395 103.829 238.464 104.159 238.464C104.671 238.464 105.061 238.315 105.327 238.016C105.605 237.707 105.743 237.269 105.743 236.704V232.32H107.503V236.784C107.503 237.456 107.359 238.048 107.071 238.56C106.794 239.061 106.405 239.456 105.903 239.744C105.402 240.021 104.821 240.16 104.159 240.16ZM112.841 240.16C112.073 240.16 111.38 239.989 110.761 239.648C110.153 239.296 109.668 238.816 109.305 238.208C108.953 237.6 108.777 236.917 108.777 236.16C108.777 235.403 108.953 234.725 109.305 234.128C109.657 233.52 110.132 233.04 110.729 232.688C111.337 232.336 112.009 232.16 112.745 232.16C113.46 232.16 114.089 232.325 114.633 232.656C115.188 232.987 115.62 233.44 115.929 234.016C116.249 234.592 116.409 235.248 116.409 235.984C116.409 236.112 116.398 236.245 116.377 236.384C116.366 236.512 116.345 236.656 116.313 236.816H110.009V235.376H115.401L114.745 235.952C114.724 235.483 114.633 235.088 114.473 234.768C114.313 234.448 114.084 234.203 113.785 234.032C113.497 233.861 113.14 233.776 112.713 233.776C112.265 233.776 111.876 233.872 111.545 234.064C111.214 234.256 110.958 234.528 110.777 234.88C110.596 235.221 110.505 235.632 110.505 236.112C110.505 236.592 110.601 237.013 110.793 237.376C110.985 237.739 111.257 238.021 111.609 238.224C111.961 238.416 112.366 238.512 112.825 238.512C113.22 238.512 113.582 238.443 113.913 238.304C114.254 238.165 114.542 237.963 114.777 237.696L115.897 238.832C115.524 239.269 115.07 239.6 114.537 239.824C114.004 240.048 113.438 240.16 112.841 240.16ZM123.263 240L120.175 232.32H121.999L124.079 237.904L123.535 237.92L125.567 232.32H126.591L128.623 237.92L128.079 237.904L130.159 232.32H131.983L128.895 240H127.871L125.791 234.688H126.367L124.287 240H123.263ZM132.976 240V232.32H134.736V240H132.976ZM133.856 230.912C133.558 230.912 133.307 230.811 133.104 230.608C132.912 230.405 132.816 230.155 132.816 229.856C132.816 229.557 132.912 229.307 133.104 229.104C133.307 228.901 133.558 228.8 133.856 228.8C134.166 228.8 134.416 228.901 134.608 229.104C134.8 229.307 134.896 229.557 134.896 229.856C134.896 230.155 134.8 230.405 134.608 230.608C134.416 230.811 134.166 230.912 133.856 230.912ZM137.878 240V229.12H139.638V240H137.878ZM136.038 233.92V232.32H141.478V233.92H136.038ZM148.021 240V235.568C148.021 235.056 147.856 234.635 147.525 234.304C147.205 233.973 146.789 233.808 146.277 233.808C145.936 233.808 145.632 233.883 145.365 234.032C145.099 234.181 144.891 234.389 144.741 234.656C144.592 234.923 144.517 235.227 144.517 235.568L143.829 235.184C143.829 234.597 143.957 234.08 144.213 233.632C144.469 233.173 144.821 232.816 145.269 232.56C145.728 232.293 146.24 232.16 146.805 232.16C147.381 232.16 147.893 232.288 148.341 232.544C148.789 232.8 149.141 233.157 149.397 233.616C149.653 234.064 149.781 234.587 149.781 235.184V240H148.021ZM142.757 240V228.48H144.517V240H142.757ZM155.013 240V228.8H156.853V240H155.013ZM156.277 240V238.32H162.549V240H156.277ZM156.277 235.088V233.472H162.005V235.088H156.277ZM156.277 230.48V228.8H162.469V230.48H156.277ZM164.21 240V232.32H165.97V240H164.21ZM169.314 240V235.424C169.314 234.912 169.154 234.517 168.834 234.24C168.514 233.952 168.12 233.808 167.65 233.808C167.33 233.808 167.042 233.872 166.786 234C166.541 234.128 166.344 234.315 166.194 234.56C166.045 234.795 165.97 235.083 165.97 235.424L165.282 235.04C165.282 234.453 165.41 233.947 165.666 233.52C165.922 233.093 166.269 232.763 166.706 232.528C167.144 232.283 167.634 232.16 168.178 232.16C168.722 232.16 169.213 232.277 169.65 232.512C170.088 232.747 170.434 233.077 170.69 233.504C170.946 233.931 171.074 234.443 171.074 235.04V240H169.314ZM174.418 240V235.424C174.418 234.912 174.258 234.517 173.938 234.24C173.618 233.952 173.224 233.808 172.754 233.808C172.445 233.808 172.162 233.872 171.906 234C171.65 234.128 171.448 234.315 171.298 234.56C171.149 234.795 171.074 235.083 171.074 235.424L170.082 235.04C170.136 234.453 170.306 233.947 170.594 233.52C170.882 233.093 171.25 232.763 171.698 232.528C172.157 232.283 172.658 232.16 173.202 232.16C173.757 232.16 174.258 232.277 174.706 232.512C175.154 232.747 175.512 233.077 175.778 233.504C176.045 233.931 176.178 234.443 176.178 235.04V240H174.418ZM181.208 240.16C180.514 240.16 179.885 239.984 179.32 239.632C178.765 239.28 178.322 238.805 177.992 238.208C177.672 237.6 177.512 236.923 177.512 236.176C177.512 235.419 177.672 234.741 177.992 234.144C178.322 233.536 178.765 233.056 179.32 232.704C179.885 232.341 180.514 232.16 181.208 232.16C181.794 232.16 182.312 232.288 182.76 232.544C183.218 232.789 183.581 233.131 183.848 233.568C184.114 234.005 184.248 234.501 184.248 235.056V237.264C184.248 237.819 184.114 238.315 183.848 238.752C183.592 239.189 183.234 239.536 182.776 239.792C182.317 240.037 181.794 240.16 181.208 240.16ZM181.496 238.496C182.146 238.496 182.669 238.277 183.064 237.84C183.469 237.403 183.672 236.843 183.672 236.16C183.672 235.701 183.581 235.296 183.4 234.944C183.218 234.592 182.962 234.32 182.632 234.128C182.312 233.925 181.933 233.824 181.496 233.824C181.069 233.824 180.69 233.925 180.36 234.128C180.04 234.32 179.784 234.592 179.592 234.944C179.41 235.296 179.32 235.701 179.32 236.16C179.32 236.619 179.41 237.024 179.592 237.376C179.784 237.728 180.04 238.005 180.36 238.208C180.69 238.4 181.069 238.496 181.496 238.496ZM183.56 240V237.936L183.864 236.064L183.56 234.208V232.32H185.32V240H183.56ZM187.289 240V232.32H189.049V240H187.289ZM188.169 230.912C187.87 230.912 187.62 230.811 187.417 230.608C187.225 230.405 187.129 230.155 187.129 229.856C187.129 229.557 187.225 229.307 187.417 229.104C187.62 228.901 187.87 228.8 188.169 228.8C188.478 228.8 188.729 228.901 188.921 229.104C189.113 229.307 189.209 229.557 189.209 229.856C189.209 230.155 189.113 230.405 188.921 230.608C188.729 230.811 188.478 230.912 188.169 230.912ZM191.023 240V228.48H192.783V240H191.023Z" fill="black"/>
<path fill-rule="evenodd" clip-rule="evenodd" d="M33.4451 227C34.652 227 35.813 227.436 36.6671 228.22C37.5221 229.001 38 230.055 38 231.159V237.665C38 239.962 35.957 241.824 33.4451 241.824H24.554C22.0421 241.824 20 239.962 20 237.665V231.159C20 228.861 22.0331 227 24.554 227H33.4451ZM34.8771 232.386L34.9491 232.32C35.1642 232.081 35.1642 231.735 34.9392 231.496C34.8141 231.374 34.6422 231.299 34.4631 231.282C34.2741 231.273 34.0941 231.332 33.9582 231.447L29.9001 234.412C29.3781 234.808 28.6302 234.808 28.1001 234.412L24.0501 231.447C23.7702 231.258 23.3832 231.282 23.1501 231.505C22.9071 231.727 22.8801 232.081 23.0862 232.328L23.2041 232.435L27.2991 235.359C27.8031 235.721 28.4142 235.919 29.0541 235.919C29.6922 235.919 30.3141 235.721 30.8172 235.359L34.8771 232.386Z" fill="black"/>
<defs>
<clipPath id="clip0_3_419">
<rect x="20" y="86" width="18.1739" height="19" rx="9.08696" fill="white"/>
</clipPath>
</defs>
</svg>
