<svg width="25" height="19" viewBox="0 0 25 19" fill="none" xmlns="http://www.w3.org/2000/svg">
<path d="M1.38889 19H23.6111C24.375 19 25 18.2875 25 17.4167C25 16.5458 24.375 15.8333 23.6111 15.8333H1.38889C0.625 15.8333 0 16.5458 0 17.4167C0 18.2875 0.625 19 1.38889 19ZM1.38889 11.0833H23.6111C24.375 11.0833 25 10.3708 25 9.5C25 8.62917 24.375 7.91667 23.6111 7.91667H1.38889C0.625 7.91667 0 8.62917 0 9.5C0 10.3708 0.625 11.0833 1.38889 11.0833ZM0 1.58333C0 2.45417 0.625 3.16667 1.38889 3.16667H23.6111C24.375 3.16667 25 2.45417 25 1.58333C25 0.7125 24.375 0 23.6111 0H1.38889C0.625 0 0 0.7125 0 1.58333Z" fill="black"/>
</svg>
